<svg width="2000" height="2000" viewBox="0 0 2000 2000" fill="none" xmlns="http://www.w3.org/2000/svg">
<g clip-path="url(#clip0_2619_19240)">
<path d="M0 0C660 0 1320 0 2000 0C2000 660 2000 1320 2000 2000C1340 2000 680 2000 0 2000C0 1340 0 680 0 0Z" fill="#12DC81"/>
<path d="M1166 874C1185.14 874 1204.28 874 1224 874C1224 937.03 1224 1000.06 1224 1065C1236.21 1065 1248.42 1065 1261 1065C1261 1001.97 1261 938.94 1261 874C1280.14 874 1299.28 874 1319 874C1319 937.36 1319 1000.72 1319 1066C1331.54 1066 1344.08 1066 1357 1066C1357 1002.64 1357 939.28 1357 874C1376.14 874 1395.28 874 1415 874C1415.07 900.243 1415.12 926.487 1415.16 952.73C1415.17 964.916 1415.19 977.102 1415.23 989.288C1415.26 999.913 1415.28 1010.54 1415.28 1021.16C1415.29 1026.79 1415.3 1032.41 1415.32 1038.03C1415.34 1043.33 1415.34 1048.63 1415.34 1053.93C1415.34 1055.87 1415.35 1057.81 1415.36 1059.74C1415.47 1078.78 1413.1 1094.34 1399.48 1108.71C1389.07 1118.32 1376.32 1123.1 1362.25 1123.15C1361.59 1123.15 1360.94 1123.15 1360.27 1123.16C1358.09 1123.17 1355.91 1123.17 1353.73 1123.18C1352.16 1123.18 1350.6 1123.19 1349.03 1123.2C1343.89 1123.22 1338.75 1123.23 1333.62 1123.24C1331.84 1123.24 1330.07 1123.25 1328.3 1123.25C1319.96 1123.27 1311.63 1123.28 1303.29 1123.29C1293.7 1123.3 1284.1 1123.33 1274.5 1123.37C1267.07 1123.4 1259.63 1123.41 1252.2 1123.42C1247.77 1123.42 1243.33 1123.43 1238.9 1123.45C1234.73 1123.48 1230.55 1123.48 1226.38 1123.47C1224.85 1123.47 1223.33 1123.48 1221.81 1123.49C1205.31 1123.63 1192.42 1119.18 1180.25 1107.81C1166.89 1093.74 1165.55 1079.23 1165.66 1060.86C1165.66 1058.82 1165.66 1056.78 1165.66 1054.74C1165.66 1049.22 1165.68 1043.7 1165.7 1038.19C1165.71 1032.41 1165.72 1026.64 1165.72 1020.86C1165.73 1009.94 1165.75 999.011 1165.78 988.086C1165.82 975.643 1165.83 963.201 1165.85 950.758C1165.88 925.172 1165.94 899.586 1166 874Z" fill="#FDFEFE"/>
<path d="M366.364 873.546C368.405 873.547 370.446 873.547 372.487 873.544C377.997 873.543 383.506 873.567 389.016 873.595C394.785 873.62 400.555 873.622 406.324 873.627C417.236 873.639 428.147 873.672 439.058 873.712C451.486 873.757 463.914 873.779 476.342 873.799C501.895 873.841 527.447 873.914 553 874C553 893.14 553 912.28 553 932C489.64 932 426.28 932 361 932C361 944.54 361 957.08 361 970C365.354 969.985 369.709 969.969 374.196 969.953C388.608 969.903 403.021 969.87 417.434 969.845C426.17 969.829 434.905 969.808 443.641 969.774C451.26 969.744 458.879 969.725 466.498 969.718C470.527 969.714 474.557 969.705 478.586 969.683C482.389 969.662 486.192 969.656 489.995 969.661C492.035 969.66 494.076 969.644 496.117 969.627C512.905 969.683 526.396 973.85 538.71 985.52C545.29 992.649 549.218 1000.77 552 1010C552.176 1010.58 552.353 1011.17 552.535 1011.77C553.123 1014.59 553.143 1017.25 553.161 1020.14C553.17 1021.38 553.18 1022.62 553.19 1023.9C553.195 1025.26 553.199 1026.61 553.203 1027.97C553.207 1029 553.207 1029 553.211 1030.05C553.226 1033.7 553.235 1037.34 553.24 1040.99C553.245 1044.72 553.269 1048.45 553.298 1052.19C553.317 1055.08 553.322 1057.98 553.323 1060.88C553.326 1062.25 553.334 1063.63 553.347 1065C553.502 1082.27 549.523 1096 537.48 1108.71C526.457 1118.88 513.362 1123.18 498.571 1123.12C497.737 1123.12 496.903 1123.12 496.044 1123.12C493.257 1123.12 490.47 1123.12 487.684 1123.11C485.683 1123.11 483.682 1123.11 481.681 1123.11C476.254 1123.11 470.827 1123.11 465.4 1123.1C459.726 1123.1 454.053 1123.09 448.379 1123.09C437.638 1123.09 426.896 1123.08 416.155 1123.07C403.925 1123.06 391.695 1123.06 379.466 1123.05C354.31 1123.04 329.155 1123.02 304 1123C304 1103.86 304 1084.72 304 1065C367.03 1065 430.06 1065 495 1065C495 1052.46 495 1039.92 495 1027C488.27 1027.03 488.27 1027.03 481.405 1027.06C466.569 1027.13 451.733 1027.17 436.897 1027.21C427.903 1027.23 418.91 1027.26 409.916 1027.3C402.074 1027.34 394.232 1027.37 386.389 1027.38C382.24 1027.38 378.091 1027.39 373.942 1027.42C370.029 1027.45 366.117 1027.46 362.204 1027.45C360.775 1027.45 359.346 1027.46 357.917 1027.48C342.154 1027.64 329.998 1022.8 318.375 1012.13C309.081 1002.5 303.938 990.777 303.823 977.375C303.81 976.076 303.797 974.777 303.784 973.439C303.775 972.031 303.768 970.623 303.761 969.215C303.757 968.498 303.753 967.78 303.749 967.041C303.728 963.239 303.714 959.438 303.704 955.636C303.693 951.745 303.659 947.855 303.619 943.964C303.593 940.942 303.585 937.919 303.581 934.896C303.576 933.464 303.565 932.032 303.546 930.599C303.346 914.268 307.432 900.833 318.75 888.75C332.983 875.392 347.714 873.401 366.364 873.546Z" fill="#FEFEFE"/>
<path d="M936.783 873.76C937.631 873.758 938.479 873.756 939.353 873.754C942.175 873.751 944.997 873.762 947.819 873.773C949.849 873.774 951.88 873.773 953.911 873.772C959.41 873.772 964.91 873.783 970.409 873.797C976.161 873.81 981.913 873.811 987.665 873.813C998.552 873.82 1009.44 873.836 1020.33 873.856C1032.72 873.879 1045.12 873.889 1057.51 873.9C1083.01 873.92 1108.51 873.957 1134 874C1134 893.14 1134 912.28 1134 932C1070.64 932 1007.28 932 942 932C942 944.54 942 957.08 942 970C946.411 969.99 950.823 969.979 955.368 969.968C969.94 969.935 984.513 969.913 999.085 969.897C1007.92 969.886 1016.76 969.872 1025.59 969.849C1033.29 969.829 1041 969.816 1048.7 969.812C1052.78 969.809 1056.85 969.803 1060.93 969.789C1064.77 969.775 1068.61 969.771 1072.45 969.774C1073.86 969.773 1075.27 969.769 1076.67 969.762C1083.79 969.725 1090.19 969.837 1097 972C1097.88 972.272 1098.75 972.544 1099.65 972.824C1106.03 975.233 1110.91 978.496 1116 983C1117.05 983.93 1117.05 983.93 1118.13 984.879C1127.35 993.541 1133.52 1005.09 1134.14 1017.87C1134.15 1018.93 1134.15 1019.98 1134.16 1021.07C1134.17 1022.27 1134.18 1023.47 1134.19 1024.71C1134.2 1026.65 1134.2 1026.65 1134.2 1028.63C1134.21 1029.63 1134.21 1029.63 1134.21 1030.64C1134.23 1034.16 1134.24 1037.69 1134.24 1041.21C1134.25 1044.81 1134.27 1048.42 1134.3 1052.02C1134.32 1054.82 1134.32 1057.62 1134.32 1060.42C1134.33 1062.39 1134.35 1064.35 1134.37 1066.32C1134.32 1083.83 1129.33 1096.61 1117 1109C1116.38 1109.65 1115.77 1110.3 1115.13 1110.97C1105.76 1120.13 1093.24 1123.17 1080.5 1123.12C1079.65 1123.12 1078.81 1123.12 1077.94 1123.12C1075.13 1123.12 1072.32 1123.12 1069.5 1123.11C1067.48 1123.11 1065.46 1123.11 1063.44 1123.11C1057.96 1123.11 1052.48 1123.11 1047 1123.1C1041.27 1123.1 1035.54 1123.09 1029.81 1123.09C1018.96 1123.09 1008.11 1123.08 997.265 1123.07C984.914 1123.06 972.564 1123.06 960.213 1123.05C934.809 1123.04 909.405 1123.02 884 1123C884 1104.19 884 1085.38 884 1066C947.36 1066 1010.72 1066 1076 1066C1076 1053.13 1076 1040.26 1076 1027C1071.52 1027.02 1067.04 1027.04 1062.42 1027.06C1047.6 1027.13 1032.77 1027.17 1017.95 1027.21C1008.96 1027.23 999.978 1027.26 990.993 1027.3C983.156 1027.34 975.32 1027.37 967.484 1027.38C963.339 1027.38 959.194 1027.39 955.048 1027.42C951.138 1027.45 947.228 1027.46 943.318 1027.45C941.891 1027.45 940.464 1027.46 939.037 1027.48C925.138 1027.62 914.897 1024.68 904 1016C903.29 1015.47 902.58 1014.93 901.848 1014.38C891.547 1006.13 885.862 993.884 884 981C883.899 978.946 883.843 976.89 883.823 974.834C883.81 973.635 883.798 972.436 883.784 971.201C883.777 969.917 883.77 968.632 883.762 967.309C883.758 966.646 883.754 965.984 883.75 965.302C883.729 961.792 883.715 958.282 883.705 954.772C883.694 951.184 883.66 947.596 883.62 944.008C883.594 941.217 883.585 938.426 883.582 935.635C883.575 933.681 883.548 931.726 883.521 929.772C883.564 912.191 889.875 899.336 902 887C902.578 886.41 903.155 885.819 903.75 885.211C912.7 876.821 924.807 873.67 936.783 873.76Z" fill="#FEFEFE"/>
<path d="M721.287 851.553C724.295 851.562 727.302 851.533 730.311 851.501C741.324 851.462 750.564 852.266 761 855.999C763.33 856.676 765.664 857.344 768 857.999C770.046 858.653 772.088 859.319 774.125 859.999C775.614 860.494 775.614 860.494 777.133 860.999C779.79 861.926 782.397 862.931 785 863.999C785 864.659 785 865.319 785 865.999C785.681 866.082 786.361 866.164 787.063 866.249C790.875 867.223 793.641 868.957 797 870.999C797 872.319 797 873.639 797 874.999C797.99 875.123 797.99 875.123 799 875.249C804.71 876.677 810.119 879.745 815 882.999C815.33 883.659 815.66 884.319 816 884.999C816.99 885.329 817.98 885.659 819 885.999C820.648 887.671 820.648 887.671 822.375 889.749C827.329 896.039 827.329 896.039 834 899.999C834.914 901.996 834.914 901.996 835.625 904.437C836.618 907.795 836.618 907.795 838 910.999C838.99 911.329 839.98 911.659 841 911.999C842.43 914.546 842.43 914.546 843.875 917.749C845.635 921.488 846.702 923.734 849.813 926.499C853.416 930.618 852.907 935.7 853 940.999C853.66 940.999 854.32 940.999 855 940.999C856.842 946.647 857.548 952.084 858 957.999C858.66 957.999 859.32 957.999 860 957.999C860.133 958.626 860.266 959.252 860.402 959.898C860.579 960.715 860.756 961.532 860.938 962.374C861.199 963.593 861.199 963.593 861.465 964.835C861.923 967.029 861.923 967.029 863 968.999C863.095 970.47 863.128 971.944 863.129 973.417C863.133 974.332 863.136 975.246 863.139 976.188C863.136 977.673 863.136 977.673 863.133 979.187C863.134 980.707 863.134 980.707 863.136 982.258C863.136 984.403 863.135 986.548 863.13 988.694C863.125 991.986 863.13 995.278 863.137 998.57C863.136 1000.65 863.135 1002.73 863.133 1004.81C863.135 1005.8 863.137 1006.79 863.139 1007.81C863.136 1008.73 863.133 1009.64 863.129 1010.58C863.128 1011.79 863.128 1011.79 863.127 1013.03C863 1015 863 1015 862 1017C861.728 1019.56 861.554 1022.12 861.379 1024.69C861 1027 861 1027 859 1029C858.286 1030.98 857.614 1032.98 857 1035C856.34 1035 855.68 1035 855 1035C855.093 1036.24 855.093 1036.24 855.188 1037.5C854.989 1041.2 854.111 1043.71 852.734 1047.1C851.861 1049.36 851.374 1051.61 851 1054C850.01 1054 849.02 1054 848 1054C848.081 1054.87 848.162 1055.74 848.246 1056.64C847.94 1060.81 846.637 1062.44 844.063 1065.69C840.986 1069.55 840.986 1069.55 839 1074C838.01 1074 837.02 1074 836 1074C836 1074.66 836 1075.32 836 1076C834.625 1077.62 834.625 1077.62 833 1079C832.34 1079 831.68 1079 831 1079C829.794 1081.33 828.835 1083.5 828 1086C827.01 1086 826.02 1086 825 1086C824.67 1087.65 824.34 1089.3 824 1091C823.34 1091 822.68 1091 822 1091C821.773 1091.58 821.546 1092.15 821.313 1092.75C819.66 1095.58 817.604 1097.03 815 1099C814.165 1099.87 814.165 1099.87 813.313 1100.75C812 1102 812 1102 810 1102C810 1102.66 810 1103.32 810 1104C809.041 1104.4 809.041 1104.4 808.063 1104.81C805.669 1105.89 805.669 1105.89 805 1109C801.438 1110.19 801.438 1110.19 798 1111C798 1111.99 798 1112.98 798 1114C795.625 1115.33 793.526 1116.12 790.875 1116.81C787.674 1117.65 785.074 1119.02 782.188 1120.62C777.032 1123.33 772.723 1123.55 767 1123C767 1122.34 767 1121.68 767 1121C766.196 1120.96 765.391 1120.92 764.563 1120.87C759.591 1119.65 756.091 1116.99 752 1114C751.134 1113.38 750.268 1112.76 749.375 1112.12C745.92 1109.03 743.001 1105.52 740 1102C739.67 1101.67 739.34 1101.34 739 1101C738.959 1099 738.957 1097 739 1095C737.832 1094.66 737.832 1094.66 736.641 1094.32C733.301 1092.65 732.929 1091.41 731.75 1087.94C730.81 1084.71 730.81 1084.71 729 1082C728.928 1080.48 728.916 1078.96 728.938 1077.44C728.947 1076.61 728.956 1075.78 728.965 1074.93C728.982 1073.98 728.982 1073.98 729 1073C728.34 1073 727.68 1073 727 1073C726.095 1067.62 725.867 1062.45 725.902 1057C725.904 1055.75 725.904 1055.75 725.907 1054.48C725.912 1051.84 725.925 1049.2 725.938 1046.56C725.943 1044.76 725.947 1042.96 725.951 1041.17C725.962 1036.78 725.979 1032.39 726 1028C726.99 1028 727.98 1028 729 1028C728.988 1027.1 728.977 1026.19 728.965 1025.26C728.956 1024.08 728.947 1022.9 728.938 1021.69C728.926 1020.52 728.914 1019.34 728.902 1018.14C729 1015 729 1015 730 1012C730.207 1007.57 730.186 1003.14 730.185 998.705C730.188 996.535 730.206 994.365 730.225 992.195C730.629 978.484 730.629 978.484 726 965.999C725.182 963.359 724.619 960.697 724 957.999C723.01 957.999 722.02 957.999 721 957.999C720.686 957.336 720.371 956.672 720.047 955.988C717.731 951.209 715.454 947.07 712 942.999C711.67 942.009 711.34 941.019 711 939.999C710.175 939.174 709.35 938.349 708.5 937.499C706 934.999 706 934.999 705 931.999C703.676 931.629 702.341 931.302 701 930.999C699.035 929.695 699.035 929.695 697.063 928.124C694.736 926.307 692.56 924.743 690 923.249C689.34 922.837 688.68 922.424 688 921.999C688 921.339 688 920.679 688 919.999C686.68 919.999 685.36 919.999 684 919.999C684 919.339 684 918.679 684 917.999C683.196 918.02 682.391 918.041 681.563 918.062C679 917.999 679 917.999 678 916.999C676.318 916.767 674.629 916.587 672.938 916.437C671.559 916.311 671.559 916.311 670.152 916.183C669.442 916.122 668.732 916.062 668 915.999C668 916.659 668 917.319 668 917.999C664.912 919.764 663.767 919.999 660 919.999C659.629 921.051 659.629 921.051 659.25 922.124C658 924.999 658 924.999 655.938 927.437C652.889 931.689 653.41 937.02 653.273 942.05C653.183 943.023 653.093 943.997 653 944.999C652.01 945.494 652.01 945.494 651 945.999C645.529 939.534 645.662 932.638 645.688 924.562C645.671 923.551 645.655 922.539 645.639 921.497C645.635 915.539 646.187 911.277 649 905.999C641.513 907.941 641.513 907.941 636 912.999C631.429 922.108 630.803 931.02 630.813 941.062C630.813 941.877 630.813 942.692 630.813 943.531C630.895 952.403 631.857 961.147 633.559 969.859C634.15 974.065 634.145 978.195 634.125 982.437C634.131 983.668 634.131 983.668 634.137 984.923C634.118 996.507 631.581 1005.06 624 1014C623.67 1014.99 623.34 1015.98 623 1017C622.34 1017 621.68 1017 621 1017C621 1017.99 621 1018.98 621 1020C618.468 1022.36 617.528 1023 614 1023C614 1023.66 614 1024.32 614 1025C613.34 1025 612.68 1025 612 1025C612.33 1028.3 612.66 1031.6 613 1035C614.32 1035 615.64 1035 617 1035C617 1035.99 617 1036.98 617 1038C617.876 1038.17 617.876 1038.17 618.769 1038.35C622.711 1039.5 625.494 1041.77 628 1045C628.913 1048.19 628.892 1051.2 628.813 1054.5C628.808 1060.14 628.963 1064.65 631 1070C631.125 1073.37 631.125 1073.37 631 1076C631.66 1076 632.32 1076 633 1076C633.144 1077.07 633.289 1078.14 633.438 1079.25C633.838 1081.92 634.276 1084.41 635 1087C635.66 1087 636.32 1087 637 1087C637 1087.66 637 1088.32 637 1089C637.99 1089 638.98 1089 640 1089C640 1089.99 640 1090.98 640 1092C643.083 1092.03 646.167 1092.05 649.25 1092.06C650.123 1092.07 650.995 1092.08 651.895 1092.09C652.739 1092.09 653.583 1092.09 654.453 1092.1C655.616 1092.1 655.616 1092.1 656.802 1092.11C659 1092 660.877 1091.55 663 1091C665.249 1090.93 667.5 1090.91 669.75 1090.94C671.506 1090.95 671.506 1090.95 673.297 1090.96C674.189 1090.98 675.081 1090.99 676 1091C676 1090.34 676 1089.68 676 1089C677.702 1088.81 677.702 1088.81 679.438 1088.62C680.613 1088.42 681.789 1088.21 683 1088C683.33 1087.34 683.66 1086.68 684 1086C690.463 1083.29 697.106 1083.16 704 1084C706.601 1085.4 707.319 1086.48 709 1089C709.66 1089.66 710.32 1090.32 711 1091C711.175 1093.94 711.231 1096.79 711.195 1099.73C711.193 1100.59 711.19 1101.45 711.187 1102.34C711.176 1105.1 711.15 1107.86 711.125 1110.62C711.115 1112.49 711.106 1114.36 711.098 1116.23C711.076 1120.82 711.041 1125.41 711 1130C709.389 1130.02 707.779 1130.04 706.168 1130.05C705.271 1130.06 704.374 1130.07 703.45 1130.08C700.56 1129.98 698.59 1129.26 696 1128C691.109 1126.46 686.311 1125.53 681.25 1124.75C673.953 1123.5 668.252 1121.02 662 1117C658.975 1115.13 656.518 1113.65 653 1113C653 1112.01 653 1111.02 653 1110C652.443 1109.9 651.886 1109.79 651.313 1109.69C648.505 1108.85 646.394 1107.68 644 1106C643.67 1105.01 643.34 1104.02 643 1103C640.985 1102.27 640.985 1102.27 639 1102C639 1101.34 639 1100.68 639 1100C638.34 1100 637.68 1100 637 1100C637 1099.01 637 1098.02 637 1097C636.381 1096.92 635.763 1096.83 635.125 1096.75C634.073 1096.38 634.073 1096.38 633 1096C632.715 1095.37 632.43 1094.75 632.137 1094.1C630.703 1091.45 629.375 1090.87 626.688 1089.56C622.776 1087.51 619.84 1085.46 617 1082C616.658 1080.67 616.323 1079.34 616 1078C615.381 1077.69 614.763 1077.38 614.125 1077.06C611.253 1075.63 610.413 1073.83 609 1071C609 1070.34 609 1069.68 609 1069C608.01 1069 607.02 1069 606 1069C603.683 1065.06 601.566 1061.31 600 1057C599.34 1057 598.68 1057 598 1057C596.502 1053.63 596 1051.79 596 1048C595.01 1047.67 594.02 1047.34 593 1047C593 1046.01 593 1045.02 593 1044C592.34 1044 591.68 1044 591 1044C590.856 1042.87 590.711 1041.73 590.563 1040.56C590.388 1037.19 590.388 1037.19 589 1036C586.653 1027.99 586.804 1020.27 587 1012C586.34 1012 585.68 1012 585 1012C584.951 1006.66 584.914 1001.32 584.89 995.984C584.88 994.168 584.866 992.352 584.849 990.537C584.825 987.925 584.814 985.314 584.805 982.703C584.794 981.892 584.784 981.081 584.773 980.246C584.773 976.287 584.912 973.4 587 969.999C587.217 967.922 587.356 965.836 587.438 963.749C587.788 958.159 588.761 954.104 591 948.999C591.677 947.003 592.348 945.004 593 942.999C593.66 942.999 594.32 942.999 595 942.999C594.938 941.968 594.876 940.937 594.813 939.874C595.016 935.676 595.991 933.631 598 929.999C598.995 927.236 599.88 924.557 600.5 921.687C600.665 921.13 600.83 920.573 601 919.999C601.99 919.504 601.99 919.504 603 918.999C604.048 917.024 605.052 915.025 606 912.999C606.99 912.999 607.98 912.999 609 912.999C609.393 911.919 609.393 911.919 609.793 910.816C612.654 904.141 617.076 898.209 623 893.999C625.282 891.772 627.515 889.521 629.688 887.187C631 885.999 631 885.999 633 885.999C633 885.009 633 884.019 633 882.999C633.99 882.999 634.98 882.999 636 882.999C636 882.339 636 881.679 636 880.999C636.722 880.773 637.444 880.546 638.188 880.312C641.193 879.111 641.193 879.111 643.563 876.374C646 873.999 646 873.999 650 873.999C650 873.009 650 872.019 650 870.999C652.647 869.539 653.895 868.999 657 868.999C657 868.009 657 867.019 657 865.999C657.944 865.744 657.944 865.744 658.906 865.484C663.03 864.316 666.887 863.182 670.625 861.062C676.26 858.067 682.626 856.941 688.808 855.556C691.018 855.031 691.018 855.031 693.178 854.226C702.332 851.147 711.74 851.512 721.287 851.553Z" fill="#FCFDFD"/>
<path d="M1509.68 873.433C1511.73 873.435 1513.79 873.434 1515.84 873.431C1521.37 873.429 1526.89 873.459 1532.42 873.494C1538.21 873.525 1544.01 873.528 1549.8 873.534C1560.75 873.549 1571.7 873.59 1582.65 873.641C1595.12 873.697 1607.6 873.724 1620.07 873.749C1645.71 873.801 1671.36 873.893 1697 874.001C1697 893.141 1697 912.281 1697 932.001C1633.64 932.001 1570.28 932.001 1505 932.001C1505 975.891 1505 1019.78 1505 1065C1568.03 1065 1631.06 1065 1696 1065C1696 1084.14 1696 1103.28 1696 1123C1669.24 1123.11 1642.47 1123.21 1615.71 1123.26C1603.28 1123.29 1590.85 1123.32 1578.42 1123.38C1567.59 1123.43 1556.75 1123.46 1545.91 1123.47C1540.18 1123.48 1534.44 1123.49 1528.71 1123.53C1523.31 1123.56 1517.9 1123.57 1512.5 1123.57C1510.52 1123.57 1508.54 1123.58 1506.57 1123.6C1488.91 1123.76 1474.9 1120.11 1461.31 1107.94C1449 1094.67 1446.53 1078.89 1446.63 1061.38C1446.63 1059.86 1446.62 1058.34 1446.62 1056.82C1446.61 1052.73 1446.62 1048.63 1446.63 1044.54C1446.64 1040.24 1446.64 1035.94 1446.64 1031.64C1446.63 1024.41 1446.65 1017.19 1446.66 1009.97C1446.69 1001.65 1446.69 993.327 1446.68 985.003C1446.68 976.962 1446.68 968.92 1446.69 960.879C1446.7 957.471 1446.7 954.064 1446.7 950.657C1446.7 946.64 1446.7 942.623 1446.72 938.606C1446.72 937.14 1446.72 935.674 1446.72 934.208C1446.69 915.199 1450.42 900.971 1464 887.001C1477.72 874.594 1492.11 873.262 1509.68 873.433Z" fill="#FDFEFE"/>
<path d="M723 958C726.45 960.666 726.94 963.912 728 968C728.33 968.33 728.66 968.66 729 969C731.286 977.321 731.281 985.784 731.206 994.337C731.187 996.524 731.185 998.711 731.186 1000.9C731.148 1011.56 731.148 1011.56 730 1015C729.775 1017.23 729.592 1019.46 729.438 1021.69C729.354 1022.87 729.27 1024.05 729.184 1025.26C729.123 1026.17 729.062 1027.07 729 1028C728.01 1028 727.02 1028 726 1028C726.33 1042.85 726.66 1057.7 727 1073C727.66 1073 728.32 1073 729 1073C729.073 1073.87 729.073 1073.87 729.148 1074.76C729.596 1079.44 730.298 1083.57 732 1088C729.353 1086.68 729.125 1085.74 728 1083C727.482 1081.03 726.968 1079.05 726.504 1077.07C726.057 1075.23 725.504 1073.43 724.938 1071.62C722.547 1062.38 723.038 1053.23 723.669 1043.79C723.814 1041.61 723.94 1039.42 724.064 1037.24C724.153 1035.84 724.242 1034.44 724.332 1033.04C724.412 1031.78 724.491 1030.53 724.573 1029.23C725 1026 725 1026 726.007 1024.1C727.176 1021.63 727.276 1019.87 727.319 1017.14C727.339 1016.18 727.359 1015.22 727.379 1014.23C727.391 1013.2 727.402 1012.17 727.414 1011.11C727.433 1010.05 727.453 1008.99 727.473 1007.9C727.532 1004.52 727.579 1001.13 727.625 997.75C727.663 995.456 727.702 993.161 727.742 990.867C727.838 985.245 727.923 979.623 728 974C727.34 974 726.68 974 726 974C724.646 971.291 724.935 968.991 725 966C724.34 966 723.68 966 723 966C723 963.36 723 960.72 723 958Z" fill="#6DCFA8"/>
<path d="M847 1055C847.33 1055 847.66 1055 848 1055C847.868 1061.23 845.592 1064.3 841.594 1068.98C839.809 1071.01 839.809 1071.01 839 1074C838.01 1074 837.02 1074 836 1074C836 1074.66 836 1075.32 836 1076C834.625 1077.62 834.625 1077.62 833 1079C832.34 1079 831.68 1079 831 1079C829.794 1081.33 828.835 1083.5 828 1086C827.01 1086 826.02 1086 825 1086C824.67 1087.65 824.34 1089.3 824 1091C823.34 1091 822.68 1091 822 1091C821.773 1091.58 821.546 1092.15 821.312 1092.75C819.659 1095.58 817.604 1097.03 815 1099C814.443 1099.58 813.886 1100.15 813.312 1100.75C812 1102 812 1102 810 1102C810 1102.66 810 1103.32 810 1104C809.361 1104.27 808.721 1104.54 808.062 1104.81C805.669 1105.89 805.669 1105.89 805 1109C801.438 1110.19 801.438 1110.19 798 1111C798 1111.99 798 1112.98 798 1114C795.646 1115.43 794.52 1116.09 791.75 1115.62C791.173 1115.42 790.595 1115.21 790 1115C790.66 1115 791.32 1115 792 1115C792 1114.34 792 1113.68 792 1113C792.598 1112.75 793.196 1112.51 793.812 1112.25C796.288 1110.84 797.334 1109.27 799 1107C799.66 1107 800.32 1107 801 1107C801 1106.34 801 1105.68 801 1105C801.99 1104.51 801.99 1104.51 803 1104C804.379 1101.31 805.114 1099.7 804.625 1096.69C804.419 1096.13 804.212 1095.57 804 1095C804.99 1095 805.98 1095 807 1095C807.33 1095.66 807.66 1096.32 808 1097C810.874 1097.42 810.874 1097.42 814 1097C815.645 1094.54 815.645 1094.54 817 1092C818.32 1092 819.64 1092 821 1092C821 1090.68 821 1089.36 821 1088C821.66 1088 822.32 1088 823 1088C822.34 1086.68 821.68 1085.36 821 1084C822.248 1082.89 823.499 1081.79 824.75 1080.69C825.446 1080.07 826.142 1079.46 826.859 1078.82C828.851 1077.13 830.889 1075.55 833 1074C833.66 1074.33 834.32 1074.66 835 1075C835.155 1074.07 835.155 1074.07 835.312 1073.12C836 1071 836 1071 839 1069C839.724 1066.94 839.724 1066.94 840 1065C840.66 1065 841.32 1065 842 1065C842 1063.35 842 1061.7 842 1060C843.65 1059.34 845.3 1058.68 847 1058C847 1057.01 847 1056.02 847 1055Z" fill="#E5F0EF"/>
<path d="M613 1077C616.754 1078.25 617.241 1079.57 619 1083C619 1083.66 619 1084.32 619 1085C619.847 1085.42 619.847 1085.42 620.711 1085.85C623.024 1087.01 625.334 1088.17 627.625 1089.38C628.401 1089.77 629.177 1090.17 629.977 1090.59C632.277 1092.19 632.807 1093.52 634 1096C634.99 1096.33 635.98 1096.66 637 1097C637 1097.99 637 1098.98 637 1100C637.66 1100 638.32 1100 639 1100C639 1100.66 639 1101.32 639 1102C639.784 1102.08 640.567 1102.17 641.375 1102.25C642.241 1102.5 643.108 1102.75 644 1103C644.289 1103.62 644.577 1104.24 644.875 1104.88C646.661 1108.25 649.493 1108.7 653 1110C653 1110.99 653 1111.98 653 1113C653.686 1113.1 654.372 1113.19 655.078 1113.29C658.646 1114.16 661.502 1115.66 664.75 1117.38C672.098 1121.15 678.754 1123.9 686.988 1124.69C689.194 1125.03 691.093 1125.67 693.188 1126.44C698.962 1128.5 704.942 1129.2 711 1130C711 1130.33 711 1130.66 711 1131C703.05 1131.22 695.729 1130.95 688 1129C688 1128.34 688 1127.68 688 1127C686.88 1126.96 685.76 1126.93 684.605 1126.89C683.133 1126.82 681.66 1126.75 680.188 1126.69C679.45 1126.66 678.712 1126.64 677.951 1126.62C672.457 1126.35 672.457 1126.35 670.09 1124.55C669.55 1123.79 669.55 1123.79 669 1123C665.285 1119.43 660.907 1118.89 656 1118C655.505 1116.02 655.505 1116.02 655 1114C654.051 1113.86 653.103 1113.71 652.125 1113.56C649 1113 649 1113 647 1112C647 1111.01 647 1110.02 647 1109C644.668 1107.79 642.504 1106.83 640 1106C638.316 1104.29 638.316 1104.29 636.562 1102.19C635.64 1101.1 635.64 1101.1 634.699 1100C634.138 1099.34 633.578 1098.68 633 1098C630.219 1094.97 627.531 1093.08 624 1091C623 1090 622 1089 621 1088C620.01 1087.67 619.02 1087.34 618 1087C615.81 1083.85 614.334 1080.59 613 1077Z" fill="#35CF8C"/>
<path d="M852 934C855.081 935.459 856.705 936.409 858.25 939.5C859.122 943.567 859.48 947.56 859.754 951.707C859.753 953.963 859.753 953.963 861 955C861.37 956.638 861.697 958.286 862 959.938C862.65 963.585 862.65 963.585 864 967C864.101 968.755 864.138 970.514 864.145 972.272C864.152 973.374 864.158 974.476 864.165 975.611C864.166 976.807 864.167 978.002 864.168 979.234C864.171 980.46 864.175 981.686 864.178 982.949C864.183 985.549 864.185 988.148 864.185 990.747C864.185 994.719 864.206 998.692 864.225 1002.66C864.228 1005.19 864.23 1007.71 864.23 1010.23C864.238 1011.42 864.245 1012.61 864.252 1013.83C864.249 1014.95 864.246 1016.06 864.243 1017.21C864.244 1018.19 864.246 1019.16 864.247 1020.17C863.966 1023.38 863.227 1026.01 862 1029C861.01 1029.5 861.01 1029.5 860 1030C859.532 1032.36 859.532 1032.36 859.375 1035.06C859.3 1035.98 859.225 1036.9 859.148 1037.85C859.099 1038.56 859.05 1039.27 859 1040C858.34 1040 857.68 1040 857 1040C856.67 1041.65 856.34 1043.3 856 1045C855.34 1045 854.68 1045 854 1045C854 1046.65 854 1048.3 854 1050C853.34 1050 852.68 1050 852 1050C852.082 1050.74 852.165 1051.49 852.25 1052.25C851.929 1055.78 850.647 1056.77 848 1059C848 1057.35 848 1055.7 848 1054C848.99 1054 849.98 1054 851 1054C850.938 1053.34 850.876 1052.68 850.812 1052C851.025 1048.6 852.004 1046.13 853.273 1043C854.141 1040.8 854.141 1040.8 854.562 1037.56C854.707 1036.72 854.851 1035.87 855 1035C855.99 1034.5 855.99 1034.5 857 1034C857.704 1032.01 858.371 1030.01 859 1028C859.495 1027.5 859.495 1027.5 860 1027C860.208 1025.36 860.368 1023.71 860.5 1022.06C860.89 1017.22 860.89 1017.22 862 1015C862.1 1013.55 862.138 1012.09 862.145 1010.63C862.152 1009.72 862.158 1008.82 862.165 1007.89C862.166 1006.91 862.167 1005.93 862.168 1004.92C862.171 1003.91 862.175 1002.91 862.178 1001.87C862.183 999.736 862.185 997.603 862.185 995.47C862.187 992.211 862.206 988.952 862.225 985.693C862.228 983.622 862.23 981.551 862.23 979.48C862.238 978.506 862.245 977.532 862.252 976.529C862.236 971.847 862.075 968.287 860 964C859.875 960.688 859.875 960.688 860 958C859.34 958 858.68 958 858 958C857.493 956.106 856.994 954.21 856.5 952.312C856.222 951.257 855.943 950.201 855.656 949.113C855.061 946.289 854.872 943.872 855 941C854.34 941 853.68 941 853 941C852.67 938.69 852.34 936.38 852 934Z" fill="#8EDBBD"/>
<path d="M623 1040C625.468 1041.15 627.048 1042.05 629 1044C629.145 1046.91 629.186 1049.72 629.125 1052.62C629.116 1053.43 629.107 1054.23 629.098 1055.05C629.074 1057.04 629.038 1059.02 629 1061C629.99 1061 630.98 1061 632 1061C633.105 1063.21 633.267 1064.76 633.5 1067.21C633.624 1068.46 633.624 1068.46 633.75 1069.73C633.874 1071.04 633.874 1071.04 634 1072.38C634.164 1074.09 634.331 1075.81 634.5 1077.52C634.572 1078.29 634.644 1079.05 634.719 1079.83C634.994 1081.95 635.439 1083.94 636 1086C636.66 1086 637.32 1086 638 1086C638 1086.66 638 1087.32 638 1088C638.99 1088 639.98 1088 641 1088C641 1088.66 641 1089.32 641 1090C643.813 1089.86 646.625 1089.71 649.438 1089.56C650.24 1089.52 651.042 1089.48 651.869 1089.44C655.752 1089.59 655.752 1089.59 659 1088C660.852 1087.84 662.709 1087.75 664.566 1087.68C665.691 1087.64 666.816 1087.6 667.975 1087.56C669.159 1087.52 670.343 1087.48 671.562 1087.44C672.75 1087.39 673.938 1087.35 675.162 1087.31C678.108 1087.2 681.054 1087.1 684 1087C683.505 1087.99 683.505 1087.99 683 1089C680.69 1089 678.38 1089 676 1089C676 1089.66 676 1090.32 676 1091C675.108 1091.06 674.216 1091.12 673.297 1091.18C672.126 1091.27 670.956 1091.35 669.75 1091.44C668.59 1091.52 667.43 1091.6 666.234 1091.68C663.177 1091.9 663.177 1091.9 660.977 1092.53C658.176 1093.2 655.5 1093.13 652.625 1093.12C651.524 1093.13 650.423 1093.13 649.289 1093.13C646.11 1093 643.122 1092.59 640 1092C640 1091.01 640 1090.02 640 1089C639.01 1089 638.02 1089 637 1089C637 1088.34 637 1087.68 637 1087C636.34 1087 635.68 1087 635 1087C632.674 1083.37 632.837 1080.23 633 1076C632.34 1076 631.68 1076 631 1076C630.867 1075.22 630.734 1074.44 630.598 1073.63C630.421 1072.62 630.244 1071.61 630.062 1070.56C629.888 1069.55 629.714 1068.54 629.535 1067.5C629.252 1065.07 629.252 1065.07 628 1064C627.892 1062.64 627.844 1061.28 627.824 1059.92C627.8 1059.09 627.777 1058.26 627.752 1057.4C627.709 1055.65 627.678 1053.9 627.658 1052.14C627.483 1046.84 627.003 1043.87 623 1040Z" fill="#61D0A3"/>
<path d="M640 908C640 911 640 911 639 914C638.361 914.577 637.721 915.155 637.062 915.75C632.805 920.395 632.745 926.401 632.734 932.445C632.732 933.137 632.731 933.829 632.729 934.541C632.727 935.999 632.731 937.456 632.739 938.913C632.75 941.099 632.739 943.283 632.727 945.469C632.717 954.005 632.794 962.698 635 971C635.66 971.33 636.32 971.66 637 972C637 979.26 637 986.52 637 994C636.34 994 635.68 994 635 994C634.67 996.31 634.34 998.62 634 1001C633.34 1001 632.68 1001 632 1001C631.876 1001.8 631.753 1002.61 631.625 1003.44C631.316 1004.71 631.316 1004.71 631 1006C630.01 1006.5 630.01 1006.5 629 1007C630.875 1000.12 630.875 1000.12 632 999C633.007 993.553 633.192 988.218 633.188 982.688C633.187 981.844 633.187 981 633.187 980.131C633.14 975.004 632.718 970.278 631.512 965.281C629.757 957.459 629.908 949.291 629.875 941.312C629.87 940.529 629.866 939.745 629.861 938.938C629.888 928.861 630.193 917.474 637.75 909.875C638.864 908.947 638.864 908.947 640 908Z" fill="#5DD2A0"/>
<path d="M586 956C586.99 956.33 587.98 956.66 589 957C588.885 959.084 588.758 961.167 588.625 963.25C588.555 964.41 588.486 965.57 588.414 966.766C588 970 588 970 587 971.658C585.473 975.233 585.64 978.875 585.586 982.703C585.566 983.541 585.547 984.379 585.527 985.242C585.467 987.911 585.421 990.58 585.375 993.25C585.337 995.063 585.298 996.875 585.258 998.688C585.162 1003.12 585.078 1007.56 585 1012C585.66 1012 586.32 1012 587 1012C587 1014.31 587 1016.62 587 1019C586.67 1017.68 586.34 1016.36 586 1015C585.01 1015 584.02 1015 583 1015C578.505 967.242 578.505 967.242 586 956Z" fill="#41D093"/>
<path d="M704.519 850.823C705.458 850.811 706.397 850.798 707.364 850.785C708.895 850.774 708.895 850.774 710.457 850.762C711.511 850.754 712.565 850.746 713.651 850.738C715.891 850.724 718.131 850.713 720.372 850.705C723.761 850.688 727.149 850.644 730.537 850.6C741.87 850.52 751.372 850.814 762 855C764.353 855.495 766.605 855.778 769 856C769 856.66 769 857.32 769 858C769.99 858.33 770.98 858.66 772 859C767.254 858.076 762.534 857.041 757.812 856C756.993 855.823 756.174 855.645 755.33 855.461C754.547 855.289 753.764 855.116 752.957 854.938C751.889 854.704 751.889 854.704 750.8 854.465C749 854 749 854 747 853C745.608 852.896 744.212 852.852 742.817 852.839C741.951 852.83 741.086 852.82 740.195 852.81C739.255 852.806 738.316 852.802 737.348 852.797C736.378 852.792 735.408 852.786 734.409 852.78C732.348 852.771 730.288 852.764 728.227 852.76C725.106 852.751 721.986 852.72 718.865 852.688C716.859 852.681 714.854 852.676 712.848 852.672C711.466 852.654 711.466 852.654 710.056 852.635C704.189 852.655 699.098 853.552 693.483 855.258C691.105 855.969 688.745 856.513 686.312 857C682.013 857.913 678.096 859.42 674 861C673.34 861 672.68 861 672 861C672.125 859.188 672.125 859.188 673 857C679.918 852.755 687.003 852.746 694.918 852.282C698.385 851.965 700.971 850.866 704.519 850.823Z" fill="#78D2AF"/>
<path d="M647.188 903.938C649.075 903.969 649.075 903.969 651 904.001C651 906.311 651 908.621 651 911.001C650.34 911.001 649.68 911.001 649 911.001C647.766 915.771 647.887 920.425 647.938 925.313C647.942 926.149 647.947 926.985 647.951 927.846C647.963 929.898 647.981 931.949 648 934.001C648.99 934.331 649.98 934.661 651 935.001C651.33 933.351 651.66 931.701 652 930.001C652.66 930.331 653.32 930.661 654 931.001C653.887 933.314 653.759 935.626 653.625 937.938C653.555 939.226 653.486 940.514 653.414 941.84C653.277 942.883 653.141 943.926 653 945.001C652.01 945.496 652.01 945.496 651 946.001C645.529 939.535 645.662 932.639 645.688 924.563C645.671 923.552 645.655 922.54 645.639 921.499C645.635 915.54 646.187 911.278 649 906.001C643.547 907.569 639.235 909.039 635 913.001C635 912.011 635 911.021 635 910.001C635.66 910.001 636.32 910.001 637 910.001C637.33 909.011 637.66 908.021 638 907.001C638.66 907.001 639.32 907.001 640 907.001C640 906.341 640 905.681 640 905.001C642.751 904.084 644.359 903.892 647.188 903.938Z" fill="#E4EEF0"/>
<path d="M629 932C629.33 932 629.66 932 630 932C630.05 932.887 630.1 933.773 630.152 934.687C630.344 938.023 630.542 941.359 630.745 944.695C630.831 946.13 630.914 947.566 630.995 949.001C631.411 956.369 631.963 963.512 633.581 970.733C634.316 974.708 634.25 978.658 634.188 982.688C634.187 983.49 634.186 984.292 634.186 985.119C634.087 998.558 634.087 998.558 630 1003C630 1000.36 630 997.72 630 995C630.66 995 631.32 995 632 995C632 986.75 632 978.5 632 970C631.34 970 630.68 970 630 970C630 964.06 630 958.12 630 952C629.34 952 628.68 952 628 952C627.971 948.854 627.953 945.708 627.938 942.562C627.929 941.665 627.921 940.767 627.912 939.842C627.909 938.988 627.906 938.134 627.903 937.254C627.895 936.068 627.895 936.068 627.887 934.858C628 933 628 933 629 932Z" fill="#C4E7DB"/>
<path d="M727 966C727.99 966.33 728.98 966.66 730 967C732.029 972.961 732.271 978.5 732.195 984.75C732.192 985.649 732.19 986.547 732.187 987.473C732.176 990.316 732.151 993.158 732.125 996C732.115 997.939 732.106 999.878 732.098 1001.82C732.076 1006.54 732.041 1011.27 732 1016C731.34 1016 730.68 1016 730 1016C730.023 1016.9 730.046 1017.81 730.07 1018.74C730.088 1019.92 730.106 1021.1 730.125 1022.31C730.148 1023.48 730.171 1024.66 730.195 1025.86C730 1029 730 1029 728 1032C727.76 1034.61 727.627 1037.12 727.586 1039.73C727.567 1040.48 727.547 1041.23 727.527 1042C727.468 1044.4 727.421 1046.79 727.375 1049.19C727.337 1050.81 727.298 1052.44 727.258 1054.06C727.162 1058.04 727.078 1062.02 727 1066C726.67 1066 726.34 1066 726 1066C726 1053.46 726 1040.92 726 1028C726.99 1028 727.98 1028 729 1028C728.988 1027.1 728.977 1026.19 728.965 1025.26C728.951 1023.49 728.951 1023.49 728.938 1021.69C728.926 1020.52 728.914 1019.34 728.902 1018.14C729 1015 729 1015 730 1012C730.207 1007.57 730.186 1003.14 730.185 998.706C730.187 996.536 730.206 994.366 730.225 992.195C730.261 983.224 729.861 974.582 727 966Z" fill="#BCE5D7"/>
<path d="M689 1083C695.27 1083 701.54 1083 708 1083C713.206 1092.11 714.333 1098.74 714.125 1109.06C714.116 1109.93 714.107 1110.79 714.098 1111.69C714.074 1113.79 714.039 1115.9 714 1118C713.34 1118 712.68 1118 712 1118C712 1121.96 712 1125.92 712 1130C711.67 1130 711.34 1130 711 1130C710.98 1128.84 710.96 1127.68 710.94 1126.48C710.864 1122.17 710.775 1117.87 710.683 1113.56C710.644 1111.69 710.609 1109.83 710.578 1107.96C710.532 1105.28 710.474 1102.6 710.414 1099.92C710.403 1099.09 710.391 1098.26 710.379 1097.4C710.303 1091.9 710.303 1091.9 708 1087C704.477 1084.33 700.471 1084.77 696.25 1084.88C695.204 1084.89 695.204 1084.89 694.137 1084.9C692.424 1084.93 690.712 1084.96 689 1085C689 1084.34 689 1083.68 689 1083Z" fill="#82D7B7"/>
<path d="M587 1025C587.66 1025 588.32 1025 589 1025C589.673 1026.77 590.338 1028.54 591 1030.31C591.371 1031.3 591.742 1032.28 592.125 1033.3C593 1036 593 1036 593 1039C593.66 1039 594.32 1039 595 1039C595 1040.65 595 1042.3 595 1044C595.99 1043.67 596.98 1043.34 598 1043C598.217 1044.83 598.217 1044.83 598.438 1046.69C598.828 1049.83 599.324 1052.91 600 1056C600.66 1056 601.32 1056 602 1056C602 1056.99 602 1057.98 602 1059C602.99 1059.33 603.98 1059.66 605 1060C606.45 1062.68 607.118 1064.27 606.625 1067.31C606.419 1067.87 606.212 1068.43 606 1069C603.683 1065.06 601.566 1061.31 600 1057C599.34 1057 598.68 1057 598 1057C596.502 1053.63 596 1051.8 596 1048C595.01 1047.67 594.02 1047.34 593 1047C593 1046.01 593 1045.02 593 1044C592.34 1044 591.68 1044 591 1044C590.856 1042.87 590.711 1041.73 590.562 1040.56C590.388 1037.19 590.388 1037.19 589 1036C588.605 1034.15 588.258 1032.3 587.938 1030.44C587.761 1029.43 587.584 1028.41 587.402 1027.37C587.27 1026.59 587.137 1025.81 587 1025Z" fill="#90DFC1"/>
<path d="M863 1004C863.33 1004 863.66 1004 864 1004C864.054 1007.04 864.094 1010.08 864.125 1013.12C864.142 1013.98 864.159 1014.84 864.176 1015.72C864.213 1020.52 864.037 1024.54 862 1029C861.34 1029.33 860.68 1029.66 860 1030C859.532 1032.36 859.532 1032.36 859.375 1035.06C859.3 1035.98 859.225 1036.9 859.148 1037.85C859.099 1038.56 859.05 1039.27 859 1040C858.34 1040 857.68 1040 857 1040C856.505 1042.47 856.505 1042.47 856 1045C855.34 1045 854.68 1045 854 1045C854 1046.65 854 1048.3 854 1050C853.34 1050 852.68 1050 852 1050C852.082 1050.74 852.165 1051.49 852.25 1052.25C851.929 1055.78 850.647 1056.77 848 1059C848 1057.35 848 1055.7 848 1054C848.99 1054 849.98 1054 851 1054C850.938 1053.34 850.876 1052.68 850.812 1052C851.025 1048.6 852.004 1046.13 853.273 1043C854.141 1040.8 854.141 1040.8 854.562 1037.56C854.707 1036.72 854.851 1035.87 855 1035C855.66 1034.67 856.32 1034.34 857 1034C857.704 1032.01 858.371 1030.01 859 1028C859.33 1027.67 859.66 1027.34 860 1027C860.208 1025.36 860.368 1023.71 860.5 1022.06C860.89 1017.22 860.89 1017.22 862 1015C862.228 1013.13 862.41 1011.25 862.562 1009.38C862.646 1008.37 862.73 1007.37 862.816 1006.34C862.877 1005.57 862.938 1004.79 863 1004Z" fill="#4DD19A"/>
<path d="M723 958C726.45 960.666 726.94 963.912 728 968C728.33 968.33 728.66 968.66 729 969C730.224 975.874 730.186 982.708 730.185 989.663C730.188 991.824 730.206 993.985 730.225 996.146C730.228 997.521 730.23 998.895 730.23 1000.27C730.235 1001.51 730.239 1002.76 730.243 1004.04C730 1007 730 1007 728 1009C728 997.45 728 985.9 728 974C727.34 974 726.68 974 726 974C724.646 971.291 724.935 968.991 725 966C724.34 966 723.68 966 723 966C723 963.36 723 960.72 723 958Z" fill="#27C983"/>
<path d="M644 906C645.65 906 647.3 906 649 906C648.125 911.875 648.125 911.875 647 913C646.901 914.637 646.869 916.278 646.867 917.918C646.866 918.925 646.865 919.933 646.864 920.971C646.867 922.032 646.871 923.094 646.875 924.188C646.871 925.23 646.868 926.272 646.864 927.346C646.87 932.337 646.934 937.098 648 942C647.67 941.34 647.34 940.68 647 940C646.34 940 645.68 940 645 940C644.67 938.02 644.34 936.04 644 934C643.34 934 642.68 934 642 934C641.597 925.39 641.294 918.559 646 911C646.377 909.678 646.722 908.346 647 907C645.68 907.33 644.36 907.66 643 908C643.33 907.34 643.66 906.68 644 906Z" fill="#58CA9C"/>
<path d="M708 1087C709.961 1088.76 710.894 1090.24 711.26 1092.87C711.348 1095.23 711.337 1097.56 711.293 1099.92C711.289 1100.78 711.284 1101.64 711.28 1102.53C711.263 1105.27 711.226 1108.01 711.188 1110.75C711.172 1112.61 711.159 1114.47 711.146 1116.33C711.113 1120.89 711.062 1125.44 711 1130C709.399 1130.03 707.797 1130.05 706.195 1130.06C705.303 1130.07 704.412 1130.09 703.493 1130.1C700.646 1129.99 698.512 1129.34 696 1128C696 1127.67 696 1127.34 696 1127C700.62 1127 705.24 1127 710 1127C709.874 1125.19 709.874 1125.19 709.746 1123.34C709.111 1113.42 708.95 1103.9 710 1094C709.381 1093.88 708.762 1093.75 708.125 1093.62C706 1093 706 1093 704 1091C704 1090.01 704 1089.02 704 1088C706 1087 706 1087 708 1087Z" fill="#E1F0ED"/>
<path d="M621 1012C622.32 1012.33 623.64 1012.66 625 1013C624.34 1014.32 623.68 1015.64 623 1017C622.34 1017 621.68 1017 621 1017C621 1017.99 621 1018.98 621 1020C618.468 1022.36 617.528 1023 614 1023C614 1023.66 614 1024.32 614 1025C613.34 1025 612.68 1025 612 1025C612.33 1028.3 612.66 1031.6 613 1035C614.32 1035 615.64 1035 617 1035C617 1035.99 617 1036.98 617 1038C616.34 1038 615.68 1038 615 1038C615 1037.34 615 1036.68 615 1036C613.68 1036 612.36 1036 611 1036C610.67 1035.34 610.34 1034.68 610 1034C609.01 1033.34 608.02 1032.68 607 1032C607.99 1029.03 608.98 1026.06 610 1023C611.65 1022.67 613.3 1022.34 615 1022C615 1020.68 615 1019.36 615 1018C616.375 1016.25 616.375 1016.25 618 1015C618.66 1015 619.32 1015 620 1015C620.33 1014.01 620.66 1013.02 621 1012Z" fill="#C0E7DA"/>
<path d="M646 1107C649.63 1107.33 653.26 1107.66 657 1108C657 1108.66 657 1109.32 657 1110C659.763 1109.48 662.326 1108.89 665 1108C663.125 1112.75 663.125 1112.75 662 1115C663.65 1115 665.3 1115 667 1115C667 1115.66 667 1116.32 667 1117C667.99 1117 668.98 1117 670 1117C670 1117.66 670 1118.32 670 1119C671.32 1119 672.64 1119 674 1119C674 1119.99 674 1120.98 674 1122C676.31 1122 678.62 1122 681 1122C681 1122.66 681 1123.32 681 1124C672.488 1123.68 666.43 1119.72 659.312 1115.35C657.158 1114.09 655.435 1113.45 653 1113C653 1112.01 653 1111.02 653 1110C652.402 1109.88 651.804 1109.75 651.188 1109.62C649 1109 649 1109 646 1107Z" fill="#EBF3F1"/>
<path d="M697.375 1083.88C698.62 1083.89 699.865 1083.91 701.148 1083.93C702.56 1083.96 702.56 1083.96 704 1084C704 1084.33 704 1084.66 704 1085C700.04 1085 696.08 1085 692 1085C692 1085.66 692 1086.32 692 1087C689.69 1087 687.38 1087 685 1087C684.67 1087.99 684.34 1088.98 684 1090C682.02 1090 680.04 1090 678 1090C678 1090.66 678 1091.32 678 1092C667.181 1094.42 657.08 1095.4 646 1095C646 1094.01 646 1093.02 646 1092C646.892 1092.01 647.784 1092.02 648.703 1092.04C650.459 1092.05 650.459 1092.05 652.25 1092.06C653.99 1092.08 653.99 1092.08 655.766 1092.1C658.82 1092.12 658.82 1092.12 661 1091.5C663.926 1090.77 666.742 1090.91 669.75 1090.94C671.506 1090.95 671.506 1090.95 673.297 1090.97C674.189 1090.98 675.081 1090.99 676 1091C676 1090.34 676 1089.68 676 1089C677.134 1088.88 678.269 1088.75 679.438 1088.63C680.613 1088.42 681.789 1088.21 683 1088C683.33 1087.34 683.66 1086.68 684 1086C688.55 1084.05 692.459 1083.78 697.375 1083.88Z" fill="#C2E5DB"/>
<path d="M860 964C862.4 967.6 863.125 969.184 863.129 973.418C863.133 974.332 863.136 975.247 863.139 976.189C863.137 977.178 863.135 978.168 863.133 979.188C863.134 980.201 863.135 981.214 863.136 982.259C863.136 984.404 863.135 986.549 863.13 988.694C863.125 991.986 863.13 995.278 863.137 998.57C863.136 1000.65 863.135 1002.73 863.133 1004.81C863.136 1006.3 863.136 1006.3 863.139 1007.81C863.136 1008.73 863.133 1009.64 863.129 1010.58C863.129 1011.39 863.128 1012.2 863.127 1013.03C863 1015 863 1015 862 1017C861.728 1019.56 861.554 1022.12 861.379 1024.69C861 1027 861 1027 859 1029C858.352 1031.57 858.352 1031.57 858 1034C857.67 1034 857.34 1034 857 1034C857 1030.7 857 1027.4 857 1024C857.66 1024 858.32 1024 859 1024C859.061 1023.15 859.121 1022.29 859.184 1021.41C859.309 1019.75 859.309 1019.75 859.438 1018.06C859.519 1016.96 859.6 1015.86 859.684 1014.72C860 1012 860 1012 861 1011C861.16 1008.12 861.26 1005.26 861.316 1002.37C861.337 1001.51 861.358 1000.64 861.379 999.752C861.445 996.981 861.504 994.209 861.562 991.438C861.606 989.563 861.649 987.689 861.693 985.814C861.801 981.21 861.902 976.605 862 972C861.34 972 860.68 972 860 972C860 969.36 860 966.72 860 964Z" fill="#B2E4D4"/>
<path d="M614 904C615.32 904.33 616.64 904.66 618 905C617.513 909.387 616.312 911.136 613 914C612.244 914.673 612.244 914.673 611.473 915.359C607.29 919 607.29 919 605 919C605 920.32 605 921.64 605 923C604.01 923 603.02 923 602 923C602 923.66 602 924.32 602 925C601.34 924.67 600.68 924.34 600 924C600.375 922.062 600.375 922.062 601 920C601.66 919.67 602.32 919.34 603 919C604.048 917.025 605.052 915.025 606 913C606.99 913 607.98 913 609 913C609.268 912.257 609.536 911.515 609.812 910.75C610.942 908.134 612.209 906.198 614 904Z" fill="#E2EFEE"/>
<path d="M712.441 851.735C713.409 851.733 714.376 851.731 715.372 851.729C717.403 851.728 719.434 851.731 721.466 851.74C724.557 851.751 727.648 851.74 730.74 851.727C732.724 851.728 734.708 851.731 736.691 851.735C737.606 851.731 738.521 851.727 739.464 851.723C744.974 851.763 749.707 852.45 755 854.001C755 854.331 755 854.661 755 855.001C752.375 855.027 749.75 855.047 747.125 855.063C746.379 855.071 745.632 855.08 744.863 855.088C739.227 855.114 739.227 855.114 737 854.001C734.773 853.903 732.542 853.87 730.312 853.868C729.654 853.867 728.996 853.866 728.318 853.865C726.926 853.864 725.534 853.866 724.142 853.87C722.008 853.876 719.875 853.87 717.742 853.864C716.391 853.864 715.039 853.866 713.688 853.868C712.454 853.869 711.22 853.87 709.949 853.871C707.068 853.797 707.068 853.797 705 855.001C702.959 855.071 700.917 855.085 698.875 855.063C697.779 855.054 696.684 855.045 695.555 855.036C694.29 855.018 694.29 855.018 693 855.001C693 854.671 693 854.341 693 854.001C699.615 852.31 705.629 851.705 712.441 851.735Z" fill="#CDE9E2"/>
<path d="M634 971C634.99 971.33 635.98 971.66 637 972C637 979.26 637 986.52 637 994C636.34 994 635.68 994 635 994C634.67 996.31 634.34 998.62 634 1001C633.34 1001 632.68 1001 632 1001C631.876 1001.8 631.753 1002.61 631.625 1003.44C631.316 1004.71 631.316 1004.71 631 1006C630.01 1006.49 630.01 1006.49 629 1007C630.875 1000.12 630.875 1000.12 632 999C633.089 993.055 633.311 987.092 633.562 981.062C633.606 980.092 633.649 979.122 633.693 978.123C633.799 975.749 633.901 973.374 634 971Z" fill="#47CA94"/>
<path d="M693 924C694.65 924 696.3 924 698 924C698 924.66 698 925.32 698 926C699.32 925.67 700.64 925.34 702 925C702.33 926.98 702.66 928.96 703 931C704.32 931.33 705.64 931.66 707 932C707 932.66 707 933.32 707 934C707.99 934.33 708.98 934.66 710 935C710 935.99 710 936.98 710 938C710.99 938.33 711.98 938.66 713 939C713 939.66 713 940.32 713 941C713.66 941 714.32 941 715 941C715 941.99 715 942.98 715 944C715.66 944 716.32 944 717 944C719.395 948.582 721.508 953.028 723 958C722.34 958 721.68 958 721 958C720.685 957.336 720.371 956.672 720.047 955.988C717.731 951.21 715.453 947.07 712 943C711.67 942.01 711.34 941.02 711 940C710.175 939.175 709.35 938.35 708.5 937.5C706 935 706 935 705 932C703.676 931.632 702.34 931.304 701 931C698.859 929.625 698.859 929.625 696.75 928C696.044 927.464 695.337 926.928 694.609 926.375C694.078 925.921 693.547 925.467 693 925C693 924.67 693 924.34 693 924Z" fill="#CDE8E1"/>
<path d="M587 956C587.66 956.33 588.32 956.66 589 957C588.886 959.084 588.758 961.167 588.625 963.25C588.555 964.41 588.486 965.57 588.414 966.766C588 970 588 970 587 971.658C585.474 975.233 585.64 978.875 585.586 982.703C585.567 983.541 585.547 984.379 585.527 985.242C585.468 987.911 585.421 990.58 585.375 993.25C585.337 995.063 585.298 996.875 585.258 998.688C585.162 1003.12 585.078 1007.56 585 1012C585.66 1012 586.32 1012 587 1012C587 1014.31 587 1016.62 587 1019C586.67 1017.68 586.34 1016.36 586 1015C585.34 1015 584.68 1015 584 1015C584 998.83 584 982.66 584 966C584.66 965.67 585.32 965.34 586 965C586.467 962.874 586.467 962.874 586.625 960.438C586.7 959.611 586.775 958.785 586.852 957.934C586.901 957.296 586.95 956.657 587 956Z" fill="#90DEC0"/>
<path d="M643 875C643.66 875.33 644.32 875.66 645 876C642.75 878.5 642.75 878.5 640 881C638.68 881 637.36 881 636 881C636 881.66 636 882.32 636 883C635.01 883 634.02 883 633 883C633 883.99 633 884.98 633 886C631.426 887.395 631.426 887.395 629.312 888.812C626.503 890.797 624.254 892.671 622.125 895.375C621.424 896.241 620.722 897.108 620 898C619.34 898 618.68 898 618 898C617.732 898.784 617.464 899.567 617.188 900.375C616 903 616 903 613 905C613.309 904.237 613.619 903.474 613.938 902.688C614.679 900.812 615.362 898.913 616 897C616.66 897 617.32 897 618 897C618 896.34 618 895.68 618 895C618.66 895 619.32 895 620 895C620.33 894.01 620.66 893.02 621 892C621.66 892 622.32 892 623 892C623 891.34 623 890.68 623 890C623.66 890 624.32 890 625 890C625 889.34 625 888.68 625 888C625.959 887.598 625.959 887.598 626.938 887.188C629.331 886.113 629.331 886.113 630 883C631.65 882.67 633.3 882.34 635 882C635.041 881.381 635.083 880.762 635.125 880.125C635.558 879.073 635.558 879.073 636 878C639 876.812 639 876.812 642 876C642.33 875.67 642.66 875.34 643 875Z" fill="#63D6A7"/>
<path d="M734 1093C736.43 1093.79 736.43 1093.79 739 1095C740.125 1098.44 740.125 1098.44 741 1102C742.52 1103.77 742.52 1103.77 744 1105C744 1105.66 744 1106.32 744 1107C744.99 1107.33 745.98 1107.66 747 1108C747 1108.66 747 1109.32 747 1110C747.598 1110.27 748.196 1110.54 748.812 1110.81C751 1112 751 1112 752.375 1113.44C754.622 1115.6 757.194 1116.69 760 1118C760 1118.33 760 1118.66 760 1119C754.33 1118.54 750.657 1117.35 746 1114C745.062 1111.25 745.062 1111.25 745 1109C744.34 1109 743.68 1109 743 1109C742.598 1108.04 742.598 1108.04 742.188 1107.06C741.113 1104.67 741.113 1104.67 738 1104C736.832 1101.5 736.832 1101.5 735.812 1098.44C735.468 1097.43 735.124 1096.41 734.77 1095.37C734.516 1094.59 734.262 1093.81 734 1093Z" fill="#49D096"/>
<path d="M613 1077C616.754 1078.25 617.241 1079.57 619 1083C619 1083.66 619 1084.32 619 1085C619.847 1085.42 619.847 1085.42 620.711 1085.85C623.024 1087.01 625.334 1088.17 627.625 1089.38C628.401 1089.77 629.177 1090.17 629.977 1090.59C632.277 1092.19 632.807 1093.52 634 1096C634.99 1096.33 635.98 1096.66 637 1097C637 1097.99 637 1098.98 637 1100C637.66 1100 638.32 1100 639 1100C639 1100.66 639 1101.32 639 1102C640.65 1102.33 642.3 1102.66 644 1103C644 1103.66 644 1104.32 644 1105C643.01 1105 642.02 1105 641 1105C641 1104.34 641 1103.68 641 1103C640.421 1102.91 639.842 1102.83 639.246 1102.74C636.364 1101.79 635.114 1100.34 633.062 1098.12C630.214 1095.15 627.637 1092.97 624 1091C623 1090 622 1089 621 1088C620.01 1087.67 619.02 1087.34 618 1087C615.81 1083.85 614.334 1080.59 613 1077Z" fill="#A2E3CB"/>
<path d="M788 1116C788.66 1116.33 789.32 1116.66 790 1117C790 1117.66 790 1118.32 790 1119C788.35 1119 786.7 1119 785 1119C785 1119.66 785 1120.32 785 1121C784.01 1121 783.02 1121 782 1121C781.67 1121.99 781.34 1122.98 781 1124C777.473 1126.35 775.971 1126.21 771.812 1126.12C770.726 1126.11 769.639 1126.09 768.52 1126.07C767.272 1126.04 767.272 1126.04 766 1126C766 1125.34 766 1124.68 766 1124C765.381 1123.69 764.762 1123.38 764.125 1123.06C762.75 1122.38 761.375 1121.69 760 1121C760.33 1120.34 760.66 1119.68 761 1119C762.98 1119.66 764.96 1120.32 767 1121C767 1121.66 767 1122.32 767 1123C774.446 1122.97 779.427 1121.08 785.75 1117.18C786.493 1116.79 787.235 1116.4 788 1116Z" fill="#35D28E"/>
<path d="M811 882C812.938 882.375 812.938 882.375 815 883C815.33 883.66 815.66 884.32 816 885C816.99 885.33 817.98 885.66 819 886C820.648 887.672 820.648 887.672 822.375 889.75C827.329 896.039 827.329 896.039 834 900C833.67 901.32 833.34 902.64 833 904C832.423 903.34 831.845 902.68 831.25 902C829.003 899.557 829.003 899.557 825 900C824.34 898.02 823.68 896.04 823 894C822.01 894 821.02 894 820 894C820 893.34 820 892.68 820 892C819.381 891.917 818.762 891.835 818.125 891.75C816 891 816 891 814.75 889.125C814 887 814 887 814 884C813.01 884 812.02 884 811 884C811 883.34 811 882.68 811 882Z" fill="#C5E6DD"/>
<path d="M587 970C588.237 972.474 587.929 973.559 587.57 976.281C586.853 982.692 586.853 989.055 586.875 995.5C586.871 996.678 586.867 997.856 586.863 999.07C586.865 1000.19 586.866 1001.31 586.867 1002.47C586.868 1003.48 586.87 1004.5 586.871 1005.54C586.836 1008.01 586.836 1008.01 588 1010C588.071 1012.37 588.084 1014.75 588.063 1017.12C588.054 1018.41 588.045 1019.69 588.035 1021.01C588.024 1022 588.012 1022.98 588 1024C588.66 1024 589.32 1024 590 1024C589.67 1025.32 589.34 1026.64 589 1028C589 1027.01 589 1026.02 589 1025C588.34 1025 587.68 1025 587 1025C587 1020.71 587 1016.42 587 1012C586.34 1012 585.68 1012 585 1012C584.951 1006.66 584.914 1001.32 584.89 995.984C584.88 994.169 584.867 992.353 584.849 990.537C584.825 987.926 584.814 985.315 584.805 982.703C584.794 981.893 584.784 981.082 584.774 980.247C584.772 973.284 584.772 973.284 587 970Z" fill="#E9F4F3"/>
<path d="M689.812 852.937C691.276 852.95 691.276 852.95 692.77 852.964C693.874 852.981 693.874 852.981 695 852.999C692.265 855.266 690.245 856.396 686.75 856.999C683.541 857.625 680.609 858.437 677.562 859.624C674 860.999 674 860.999 672 860.999C672.125 859.187 672.125 859.187 673 856.999C678.496 853.627 683.461 852.86 689.812 852.937Z" fill="#2DCD88"/>
<path d="M684 1088C683 1089 683 1089 679.438 1089.06C678.303 1089.04 677.169 1089.02 676 1089C676 1089.66 676 1090.32 676 1091C667.09 1091 658.18 1091 649 1091C649 1090.67 649 1090.34 649 1090C649.957 1089.91 649.957 1089.91 650.934 1089.82C652.173 1089.69 652.173 1089.69 653.438 1089.56C654.673 1089.44 654.673 1089.44 655.934 1089.32C657.987 1089.21 657.987 1089.21 659 1088C662.799 1087.62 666.623 1087.53 670.438 1087.38C671.513 1087.32 672.589 1087.27 673.697 1087.22C674.724 1087.18 675.751 1087.13 676.809 1087.09C677.755 1087.05 678.702 1087 679.677 1086.96C682 1087 682 1087 684 1088Z" fill="#22D084"/>
<path d="M633 1076C633.33 1076 633.66 1076 634 1076C634.66 1079.3 635.32 1082.6 636 1086C636.66 1086 637.32 1086 638 1086C638 1086.66 638 1087.32 638 1088C638.99 1088 639.98 1088 641 1088C641 1088.66 641 1089.32 641 1090C648.26 1090.33 655.52 1090.66 663 1091C658.874 1093.06 657.111 1093.25 652.625 1093.19C651.524 1093.18 650.424 1093.17 649.289 1093.17C646.12 1093.01 643.116 1092.59 640 1092C640 1091.01 640 1090.02 640 1089C639.01 1089 638.02 1089 637 1089C637 1088.34 637 1087.68 637 1087C636.34 1087 635.68 1087 635 1087C632.674 1083.37 632.838 1080.23 633 1076Z" fill="#81D2B3"/>
<path d="M846 1062C846.33 1063.32 846.66 1064.64 847 1066C846.01 1066.33 845.02 1066.66 844 1067C844 1067.99 844 1068.98 844 1070C843.34 1070 842.68 1070 842 1070C842 1070.66 842 1071.32 842 1072C841.34 1072 840.68 1072 840 1072C840 1072.99 840 1073.98 840 1075C839.01 1075 838.02 1075 837 1075C837 1075.99 837 1076.98 837 1078C835.508 1079.26 834.012 1080.53 832.469 1081.73C830.693 1083.27 829.813 1084.81 829 1087C828.01 1087 827.02 1087 826 1087C826 1087.66 826 1088.32 826 1089C825.34 1088.67 824.68 1088.34 824 1088C824.33 1087.34 824.66 1086.68 825 1086C825.99 1086 826.98 1086 828 1086C828.186 1085.1 828.186 1085.1 828.375 1084.19C829 1082 829 1082 831 1079C831.66 1079 832.32 1079 833 1079C833.33 1078.01 833.66 1077.02 834 1076C834.66 1076 835.32 1076 836 1076C836 1075.34 836 1074.68 836 1074C836.99 1074 837.98 1074 839 1074C839.102 1073.43 839.204 1072.86 839.309 1072.27C840.123 1069.6 841.347 1067.94 843.062 1065.75C843.61 1065.04 844.158 1064.34 844.723 1063.61C845.144 1063.08 845.566 1062.55 846 1062Z" fill="#61D9A6"/>
<path d="M636 881C636.66 881.33 637.32 881.66 638 882C637.67 882.66 637.34 883.32 637 884C636.01 884 635.02 884 634 884C634.33 885.32 634.66 886.64 635 888C633.35 888.33 631.7 888.66 630 889C629.897 889.639 629.794 890.279 629.688 890.938C629.461 891.618 629.234 892.299 629 893C628.01 893.33 627.02 893.66 626 894C622.173 897.442 622.173 897.442 620 902C619.01 902 618.02 902 617 902C617 902.66 617 903.32 617 904C616.34 903.67 615.68 903.34 615 903C617.127 898.969 619.397 896.745 623 894C625.282 891.773 627.515 889.521 629.688 887.188C631 886 631 886 633 886C633 885.01 633 884.02 633 883C633.99 883 634.98 883 636 883C636 882.34 636 881.68 636 881Z" fill="#C2E8DC"/>
<path d="M749 1104C749.66 1105.32 750.32 1106.64 751 1108C752.32 1108 753.64 1108 755 1108C755.99 1110.97 756.98 1113.94 758 1117C752.41 1115.19 747.808 1111.44 744 1107C744 1106.34 744 1105.68 744 1105C746 1104 746 1104 749 1104Z" fill="#D5E8E5"/>
<path d="M758 1117C763.733 1117.93 763.733 1117.93 766.25 1118.56C772.078 1119.49 778.275 1119.53 784 1118C781.163 1121.12 778.705 1122.87 774.422 1123.2C773.54 1123.17 772.658 1123.15 771.75 1123.12C770.858 1123.11 769.966 1123.09 769.047 1123.07C768.034 1123.04 768.034 1123.04 767 1123C767 1122.34 767 1121.68 767 1121C766.072 1120.9 765.144 1120.79 764.188 1120.69C760.967 1119.99 759.974 1119.52 758 1117Z" fill="#B6E6D6"/>
<path d="M710 1088C711.938 1088.81 711.938 1088.81 714 1090C715.661 1094.98 715.225 1100.18 715.24 1105.4C715.25 1107.43 715.281 1109.46 715.312 1111.49C715.32 1113.41 715.32 1113.41 715.328 1115.37C715.342 1117.13 715.342 1117.13 715.356 1118.93C714.972 1122.24 714.244 1123.59 712 1126C712 1123.36 712 1120.72 712 1118C712.66 1118 713.32 1118 714 1118C713.885 1115.02 713.758 1112.04 713.625 1109.06C713.594 1108.23 713.563 1107.4 713.531 1106.54C713.24 1100.32 712.831 1093.66 710 1088Z" fill="#2BD089"/>
<path d="M724 1044C724.33 1044 724.66 1044 725 1044C725.33 1053.57 725.66 1063.14 726 1073C726.99 1073 727.98 1073 729 1073C729.074 1073.87 729.074 1073.87 729.149 1074.76C729.597 1079.44 730.298 1083.57 732 1088C729.354 1086.68 729.125 1085.74 728 1083C727.483 1081.03 726.969 1079.05 726.504 1077.07C726.057 1075.23 725.504 1073.43 724.938 1071.62C722.535 1062.33 723.111 1053.5 724 1044Z" fill="#4FCD98"/>
<path d="M599 925C599.688 926.688 599.688 926.688 600 929C599 930.667 598 932.333 597 934C596.17 936.97 595.561 939.968 595 943C594.34 943 593.68 943 593 943C592.876 943.846 592.753 944.691 592.625 945.562C591.972 949.152 591.048 952.508 590 956C589.67 956 589.34 956 589 956C588.75 949.375 588.75 949.375 591 946C591.456 943.423 591.829 940.907 592.125 938.312C592.211 937.611 592.298 936.909 592.387 936.186C592.598 934.458 592.8 932.729 593 931C593.66 931.33 594.32 931.66 595 932C596.32 929.69 597.64 927.38 599 925Z" fill="#8CDDBE"/>
<path d="M677 1123C688.36 1124.63 688.36 1124.63 693.438 1126.5C699.113 1128.56 705.037 1129.22 711 1130C711 1130.33 711 1130.66 711 1131C703.05 1131.22 695.729 1130.95 688 1129C688 1128.34 688 1127.68 688 1127C687.374 1126.94 686.747 1126.88 686.102 1126.82C685.284 1126.73 684.467 1126.65 683.625 1126.56C682.407 1126.44 682.407 1126.44 681.164 1126.32C679 1126 679 1126 677 1125C677 1124.34 677 1123.68 677 1123Z" fill="#6CD2AA"/>
<path d="M647.188 903.938C649.075 903.969 649.075 903.969 651 904.001C651 906.311 651 908.621 651 911.001C650.34 911.001 649.68 911.001 649 911.001C649 911.991 649 912.981 649 914.001C648.01 914.331 647.02 914.661 646 915.001C646.99 912.031 647.98 909.061 649 906.001C643.448 907.658 639.309 908.97 635 913.001C635 912.011 635 911.021 635 910.001C635.66 910.001 636.32 910.001 637 910.001C637.33 909.011 637.66 908.021 638 907.001C638.66 907.001 639.32 907.001 640 907.001C640 906.341 640 905.681 640 905.001C642.751 904.084 644.359 903.892 647.188 903.938Z" fill="#BEE2D5"/>
<path d="M662 865C662.33 865.66 662.66 866.32 663 867C661.68 867 660.36 867 659 867C659 867.99 659 868.98 659 870C658.01 870 657.02 870 656 870C656 871.32 656 872.64 656 874C655.196 874.309 654.391 874.619 653.562 874.938C651.109 875.763 651.109 875.763 650 877C648 877.041 646 877.043 644 877C644.66 876.01 645.32 875.02 646 874C647.32 874 648.64 874 650 874C650 873.01 650 872.02 650 871C652.647 869.539 653.894 869 657 869C657 868.01 657 867.02 657 866C658.65 865.67 660.3 865.34 662 865Z" fill="#CFEBE4"/>
<path d="M633 973C633.33 973 633.66 973 634 973C634.027 976.021 634.047 979.042 634.062 982.062C634.071 982.91 634.079 983.758 634.088 984.631C634.141 998.498 634.141 998.498 630 1003C630 1000.36 630 997.72 630 995C630.66 995 631.32 995 632 995C631.988 993.915 631.977 992.829 631.965 991.711C631.955 990.266 631.946 988.82 631.938 987.375C631.925 986.306 631.925 986.306 631.912 985.215C631.893 981.027 632.173 977.127 633 973Z" fill="#BDE4D7"/>
<path d="M723 958C726.45 960.666 726.94 963.912 728 968C728.33 968.33 728.66 968.66 729 969C729.234 970.849 729.413 972.705 729.562 974.562C729.646 975.574 729.73 976.586 729.816 977.629C729.907 978.803 729.907 978.803 730 980C728 977 728 977 728 974C727.34 974 726.68 974 726 974C724.646 971.291 724.935 968.991 725 966C724.34 966 723.68 966 723 966C723 963.36 723 960.72 723 958Z" fill="#61CDA2"/>
<path d="M645 1092C653.58 1092 662.16 1092 671 1092C671 1092.33 671 1092.66 671 1093C662.64 1095.39 654.613 1095.19 646 1095C645.67 1094.01 645.34 1093.02 645 1092Z" fill="#D4E9E4"/>
<path d="M639 1103C639.66 1103 640.32 1103 641 1103C641 1103.66 641 1104.32 641 1105C641.572 1105.12 642.145 1105.24 642.734 1105.37C645.1 1106.03 647.072 1106.94 649.25 1108.06C649.956 1108.42 650.663 1108.79 651.391 1109.16C651.922 1109.44 652.453 1109.71 653 1110C653 1110.99 653 1111.98 653 1113C653.722 1113.1 654.444 1113.21 655.188 1113.31C658.245 1114.06 660.383 1115.28 663 1117C659.281 1117 656.766 1115.87 653.312 1114.5C652.133 1114.04 650.954 1113.57 649.738 1113.09C648.835 1112.73 647.931 1112.37 647 1112C647 1111.01 647 1110.02 647 1109C644.668 1107.79 642.504 1106.83 640 1106C639.67 1105.01 639.34 1104.02 639 1103Z" fill="#74D6B0"/>
<path d="M860 964C863.062 968.593 863.134 971.67 863.098 977.07C863.096 977.867 863.095 978.663 863.093 979.483C863.088 982.03 863.075 984.578 863.062 987.125C863.057 988.85 863.053 990.576 863.049 992.301C863.038 996.534 863.021 1000.77 863 1005C862.67 1005 862.34 1005 862 1005C862 994.11 862 983.22 862 972C861.34 972 860.68 972 860 972C860 969.36 860 966.72 860 964Z" fill="#C9EAE0"/>
<path d="M696 928C701.931 929.098 705.606 932.098 709 937C709 937.66 709 938.32 709 939C709.99 939.33 710.98 939.66 712 940C712 940.66 712 941.32 712 942C709.525 941.01 709.525 941.01 707 940C707 939.34 707 938.68 707 938C706.01 938 705.02 938 704 938C704 936.35 704 934.7 704 933C703.237 933.041 702.474 933.082 701.688 933.125C699 933 699 933 696 931C696 930.01 696 929.02 696 928Z" fill="#56CF9D"/>
<path d="M801 1105C802.65 1105 804.3 1105 806 1105C805.67 1106.32 805.34 1107.64 805 1109C802.69 1109.66 800.38 1110.32 798 1111C798 1111.99 798 1112.98 798 1114C795.646 1115.43 794.52 1116.09 791.75 1115.62C791.173 1115.42 790.595 1115.21 790 1115C790.66 1115 791.32 1115 792 1115C792 1114.34 792 1113.68 792 1113C792.598 1112.75 793.196 1112.51 793.812 1112.25C796.288 1110.84 797.334 1109.27 799 1107C799.66 1107 800.32 1107 801 1107C801 1106.34 801 1105.68 801 1105Z" fill="#82DABA"/>
<path d="M847 1055C847.33 1055 847.66 1055 848 1055C847.868 1061.23 845.592 1064.3 841.594 1068.98C839.809 1071.01 839.809 1071.01 839 1074C838.34 1073.67 837.68 1073.34 837 1073C837.99 1070.36 838.98 1067.72 840 1065C840.66 1065 841.32 1065 842 1065C842 1063.35 842 1061.7 842 1060C843.65 1059.34 845.3 1058.68 847 1058C847 1057.01 847 1056.02 847 1055Z" fill="#BCE8D8"/>
<path d="M625 1043C628 1045 628 1045 628.417 1046.92C628.436 1047.69 628.456 1048.46 628.477 1049.25C628.508 1050.08 628.538 1050.92 628.57 1051.78C628.588 1052.66 628.606 1053.54 628.625 1054.44C628.676 1056.17 628.731 1057.89 628.789 1059.62C628.807 1060.39 628.824 1061.16 628.842 1061.95C628.932 1064.2 628.932 1064.2 630 1067C629.34 1067 628.68 1067 628 1067C626.522 1064.04 626.94 1061.26 627 1058C626.34 1058 625.68 1058 625 1058C624.787 1053.53 625.409 1050.18 627 1046C626.01 1045.67 625.02 1045.34 624 1045C624.33 1044.34 624.66 1043.68 625 1043Z" fill="#D5EBE7"/>
<path d="M601 1061C603.5 1063.31 603.5 1063.31 606 1066C606 1066.99 606 1067.98 606 1069C606.99 1069 607.98 1069 609 1069C610.32 1071.31 611.64 1073.62 613 1076C610 1076 610 1076 607.875 1074.31C605.83 1071.79 605.354 1070.19 605 1067C604.34 1067 603.68 1067 603 1067C603 1066.34 603 1065.68 603 1065C602.34 1065 601.68 1065 601 1065C601 1063.68 601 1062.36 601 1061Z" fill="#3FD293"/>
<path d="M852 934C855.286 935.557 856.751 936.466 858.312 939.812C858.997 942.986 859.154 945.765 859 949C858.67 948.01 858.34 947.02 858 946C857.01 946 856.02 946 855 946C855 944.35 855 942.7 855 941C854.34 941 853.68 941 853 941C852.67 938.69 852.34 936.38 852 934Z" fill="#5ED2A1"/>
<path d="M625 888C625.66 888 626.32 888 627 888C625.326 891.957 622.869 894.845 620 898C619.34 898 618.68 898 618 898C617.732 898.784 617.464 899.568 617.188 900.375C616 903 616 903 613 905C613.309 904.237 613.619 903.474 613.938 902.688C614.679 900.812 615.362 898.913 616 897C616.66 897 617.32 897 618 897C618 896.34 618 895.68 618 895C618.66 895 619.32 895 620 895C620.33 894.01 620.66 893.02 621 892C621.66 892 622.32 892 623 892C623 891.34 623 890.68 623 890C623.66 890 624.32 890 625 890C625 889.34 625 888.68 625 888Z" fill="#4DD49C"/>
<path d="M734 1093C736.43 1093.79 736.43 1093.79 739 1095C740.125 1098.44 740.125 1098.44 741 1102C742.52 1103.77 742.52 1103.77 744 1105C744 1105.66 744 1106.32 744 1107C744.99 1107.33 745.98 1107.66 747 1108C746.67 1108.66 746.34 1109.32 746 1110C745.01 1109.67 744.02 1109.34 743 1109C742.333 1107.67 741.667 1106.33 741 1105C740.01 1104.67 739.02 1104.34 738 1104C736.832 1101.5 736.832 1101.5 735.812 1098.44C735.468 1097.43 735.124 1096.41 734.77 1095.37C734.516 1094.59 734.262 1093.81 734 1093Z" fill="#8BDBBC"/>
<path d="M853 1035C853.66 1035 854.32 1035 855 1035C855.349 1039.65 854.453 1042.87 852.734 1047.1C851.861 1049.36 851.374 1051.61 851 1054C850.01 1054 849.02 1054 848 1054C848 1052.35 848 1050.7 848 1049C848.66 1049 849.32 1049 850 1049C850 1048.01 850 1047.02 850 1046C850.66 1046 851.32 1046 852 1046C852.33 1042.37 852.66 1038.74 853 1035Z" fill="#E5EFF1"/>
<path d="M652 930C652.66 930.33 653.32 930.66 654 931C653.887 933.313 653.759 935.626 653.625 937.938C653.555 939.225 653.486 940.513 653.414 941.84C653.277 942.883 653.141 943.926 653 945C652.01 945.495 652.01 945.495 651 946C647.662 942.359 647.021 938.714 646 934C646.99 934.33 647.98 934.66 649 935C649.33 936.65 649.66 938.3 650 940C650.66 940 651.32 940 652 940C652 936.7 652 933.4 652 930Z" fill="#BBE3D8"/>
<path d="M804 1095C804.99 1095 805.98 1095 807 1095C807.33 1095.66 807.66 1096.32 808 1097C810.025 1097.65 810.025 1097.65 812 1098C812 1098.66 812 1099.32 812 1100C811.01 1100 810.02 1100 809 1100C808.67 1100.99 808.34 1101.98 808 1103C807.34 1103 806.68 1103 806 1103C806 1103.66 806 1104.32 806 1105C805.01 1104.67 804.02 1104.34 803 1104C803.351 1103.26 803.701 1102.51 804.062 1101.75C805.045 1098.87 805.033 1097.79 804 1095Z" fill="#E7EFED"/>
<path d="M857 1034C857.33 1034.66 857.66 1035.32 858 1036C857.34 1036 856.68 1036 856 1036C856 1038.31 856 1040.62 856 1043C855.34 1043 854.68 1043 854 1043C854 1045.31 854 1047.62 854 1050C853.34 1050 852.68 1050 852 1050C852.082 1050.74 852.165 1051.49 852.25 1052.25C851.929 1055.78 850.647 1056.77 848 1059C848 1057.35 848 1055.7 848 1054C848.99 1054 849.98 1054 851 1054C850.938 1053.34 850.876 1052.68 850.812 1052C851.025 1048.6 852.004 1046.13 853.273 1043C854.141 1040.8 854.141 1040.8 854.562 1037.56C854.707 1036.72 854.851 1035.87 855 1035C855.66 1034.67 856.32 1034.34 857 1034Z" fill="#7DD7B4"/>
<path d="M647 907C646.335 911.389 644.812 914.981 643 919C642.67 917.68 642.34 916.36 642 915C642.66 915 643.32 915 644 915C644 913.68 644 912.36 644 911C641.525 912.485 641.525 912.485 639 914C639.506 911.831 640 910 641 908C643.089 907.326 644.804 907 647 907Z" fill="#28C580"/>
<path d="M587 1025C587.66 1025 588.32 1025 589 1025C590.607 1029.37 592.077 1033.53 592.5 1038.19C593.01 1042.07 594.06 1044.63 596 1048C595.01 1047.67 594.02 1047.34 593 1047C593 1046.01 593 1045.02 593 1044C592.34 1044 591.68 1044 591 1044C590.856 1042.87 590.711 1041.73 590.562 1040.56C590.388 1037.19 590.388 1037.19 589 1036C588.605 1034.15 588.258 1032.3 587.938 1030.44C587.761 1029.43 587.584 1028.41 587.402 1027.37C587.27 1026.59 587.137 1025.81 587 1025Z" fill="#77D8B1"/>
<path d="M692 1085C696.29 1085 700.58 1085 705 1085C705.33 1085.66 705.66 1086.32 706 1087C705.095 1087.09 705.095 1087.09 704.172 1087.18C702.973 1087.31 702.973 1087.31 701.75 1087.44C700.961 1087.52 700.172 1087.6 699.359 1087.68C697.014 1087.93 697.014 1087.93 694.891 1088.66C693 1089 693 1089 690 1087C690.66 1087 691.32 1087 692 1087C692 1086.34 692 1085.68 692 1085Z" fill="#EAF3F2"/>
<path d="M584 1015C584.66 1015 585.32 1015 586 1015C587.07 1021.32 588.133 1027.64 589 1034C586.81 1030.72 586.002 1027.79 585 1024C584.67 1024 584.34 1024 584 1024C584 1021.03 584 1018.06 584 1015Z" fill="#40CF93"/>
<path d="M795 870C796.32 870 797.64 870 799 870C799.33 870.66 799.66 871.32 800 872C800.99 872.33 801.98 872.66 803 873C803 873.66 803 874.32 803 875C805.332 876.206 807.496 877.165 810 878C809.67 878.66 809.34 879.32 809 880C808.469 879.723 807.938 879.446 807.391 879.16C806.684 878.798 805.978 878.436 805.25 878.062C804.554 877.703 803.858 877.343 803.141 876.973C801.098 876.044 799.189 875.468 797 875C797 873.68 797 872.36 797 871C796.34 870.67 795.68 870.34 795 870Z" fill="#87DABB"/>
<path d="M693 855C690.494 856.504 688.685 857.042 685.75 857.438C681.46 858.081 678.034 859.427 674 861C673.34 861 672.68 861 672 861C672 860.01 672 859.02 672 858C674.31 858 676.62 858 679 858C679 857.34 679 856.68 679 856C680.581 855.635 682.165 855.283 683.75 854.938C684.632 854.74 685.513 854.543 686.422 854.34C688.987 854.002 690.571 854.188 693 855Z" fill="#7BD3B1"/>
<path d="M630 1070C630.33 1070 630.66 1070 631 1070C631 1071.98 631 1073.96 631 1076C631.66 1076 632.32 1076 633 1076C633.124 1077.03 633.247 1078.06 633.375 1079.12C633.939 1082.62 634.787 1085.68 636 1089C635.01 1089 634.02 1089 633 1089C633 1087.35 633 1085.7 633 1084C632.34 1084 631.68 1084 631 1084C631.33 1082.02 631.66 1080.04 632 1078C631.34 1078 630.68 1078 630 1078C630 1075.36 630 1072.72 630 1070Z" fill="#D8ECE8"/>
<path d="M663 1117C665.31 1117 667.62 1117 670 1117C670 1117.66 670 1118.32 670 1119C671.32 1119 672.64 1119 674 1119C674 1119.99 674 1120.98 674 1122C676.31 1122 678.62 1122 681 1122C681 1122.66 681 1123.32 681 1124C674.039 1123.61 669.061 1121.37 663 1118C663 1117.67 663 1117.34 663 1117Z" fill="#C7E8DD"/>
<path d="M819 1093C819.66 1093.33 820.32 1093.66 821 1094C820.072 1094.76 819.144 1095.53 818.188 1096.31C816.44 1097.76 814.828 1099.18 813.25 1100.81C812 1102 812 1102 810 1102C810 1102.66 810 1103.32 810 1104C808.68 1104.33 807.36 1104.66 806 1105C806 1104.34 806 1103.68 806 1103C806.66 1103 807.32 1103 808 1103C808.33 1101.68 808.66 1100.36 809 1099C809.99 1099.33 810.98 1099.66 812 1100C812 1099.34 812 1098.68 812 1098C813.531 1096.71 813.531 1096.71 815.5 1095.38C816.15 1094.93 816.799 1094.48 817.469 1094.02C818.227 1093.52 818.227 1093.52 819 1093Z" fill="#93DFC2"/>
<path d="M640 908C640 911 640 911 639 914C638.381 914.536 637.763 915.073 637.125 915.625C634.119 918.985 633.208 922.717 632 927C630.404 922.512 631.963 919.629 633.742 915.418C635.409 912.214 637.241 910.299 640 908Z" fill="#76D3AF"/>
<path d="M804 877C806.938 878.25 806.938 878.25 810 880C810.875 882.188 810.875 882.188 811 884C811.99 884 812.98 884 814 884C813.34 885.32 812.68 886.64 812 888C809.071 885.176 806.416 882.278 804 879C804 878.34 804 877.68 804 877Z" fill="#DCEBEB"/>
<path d="M689 1083C695.27 1083 701.54 1083 708 1083C708.66 1084.65 709.32 1086.3 710 1088C705.125 1086.12 705.125 1086.12 704 1085C701.47 1084.93 698.967 1084.91 696.438 1084.94C695.727 1084.94 695.016 1084.95 694.283 1084.95C692.522 1084.96 690.761 1084.98 689 1085C689 1084.34 689 1083.68 689 1083Z" fill="#5DD5A3"/>
<path d="M643 877C643 880.562 642.239 881.411 640.125 884.188C639.591 884.903 639.058 885.618 638.508 886.355C638.01 886.898 637.513 887.441 637 888C636.34 888 635.68 888 635 888C634.67 886.68 634.34 885.36 634 884C634.99 884 635.98 884 637 884C637.33 883.01 637.66 882.02 638 881C639.623 879.614 641.287 878.274 643 877Z" fill="#E6EFF1"/>
<path d="M684 1088C683 1089 683 1089 679.438 1089.06C678.303 1089.04 677.169 1089.02 676 1089C676 1089.66 676 1090.32 676 1091C672.37 1091 668.74 1091 665 1091C669.297 1088.85 671.77 1087.81 676.5 1087.37C677.97 1087.23 677.97 1087.23 679.469 1087.09C682 1087 682 1087 684 1088Z" fill="#6ECDA9"/>
<path d="M585 1004C587.413 1008.83 588.113 1011.59 588.062 1017.12C588.053 1018.41 588.044 1019.69 588.035 1021.01C588.024 1022 588.012 1022.98 588 1024C588.66 1024 589.32 1024 590 1024C589.67 1025.32 589.34 1026.64 589 1028C589 1027.01 589 1026.02 589 1025C588.34 1025 587.68 1025 587 1025C587 1020.71 587 1016.42 587 1012C586.34 1012 585.68 1012 585 1012C585 1009.36 585 1006.72 585 1004Z" fill="#D3EEE6"/>
<path d="M592 1036C592.33 1036.99 592.66 1037.98 593 1039C593.66 1039 594.32 1039 595 1039C595 1040.65 595 1042.3 595 1044C595.99 1043.67 596.98 1043.34 598 1043C598 1044.98 598 1046.96 598 1049C594.987 1046.99 593.187 1045.46 592 1042C591.875 1038.75 591.875 1038.75 592 1036Z" fill="#C6EADE"/>
<path d="M712 942C712.66 942 713.32 942 714 942C714 942.66 714 943.32 714 944C714.99 944 715.98 944 717 944C719.395 948.582 721.508 953.028 723 958C722.34 958 721.68 958 721 958C720.685 957.336 720.371 956.672 720.047 955.988C717.738 951.224 715.502 947.021 712 943C712 942.67 712 942.34 712 942Z" fill="#8AD3B8"/>
<path d="M845 921C845.598 921.763 846.196 922.526 846.812 923.312C848.804 925.922 848.804 925.922 850.75 927.5C852.53 929.636 852.218 931.31 852 934C851.34 934 850.68 934 850 934C850 932.68 850 931.36 850 930C849.01 929.67 848.02 929.34 847 929C847 928.01 847 927.02 847 926C846.34 926 845.68 926 845 926C845 924.35 845 922.7 845 921Z" fill="#A0E0C8"/>
<path d="M668 916C668.99 916 669.98 916 671 916C671 916.66 671 917.32 671 918C667.785 920.958 664.006 922.368 660 924C659.01 924.495 659.01 924.495 658 925C658.688 922.625 658.688 922.625 660 920C662.915 918.431 664.679 918 668 918C668 917.34 668 916.68 668 916Z" fill="#4DCE98"/>
<path d="M606 913C606.33 913 606.66 913 607 913C607 914.98 607 916.96 607 919C606.34 919 605.68 919 605 919C605 920.32 605 921.64 605 923C604.01 923 603.02 923 602 923C602 923.66 602 924.32 602 925C601.34 924.67 600.68 924.34 600 924C600.375 922.062 600.375 922.062 601 920C601.66 919.67 602.32 919.34 603 919C604.048 917.025 605.052 915.025 606 913Z" fill="#A4E2CB"/>
<path d="M772 859C773.605 859.087 775.209 859.196 776.812 859.312C778.152 859.4 778.152 859.4 779.52 859.488C782.306 860.063 783.241 860.821 785 863C782.449 863.93 781.26 864.086 778.641 863.223C777.852 862.84 777.063 862.457 776.25 862.062C775.451 861.682 774.652 861.302 773.828 860.91C773.225 860.61 772.622 860.309 772 860C772 859.67 772 859.34 772 859Z" fill="#5AD09D"/>
<path d="M677 1123C683.458 1124 689.766 1125.02 696 1127C696 1127.33 696 1127.66 696 1128C689.178 1128.39 683.504 1127.01 677 1125C677 1124.34 677 1123.68 677 1123Z" fill="#96D9C2"/>
<path d="M689 1085C689 1085.33 689 1085.66 689 1086C683.216 1088.01 678.098 1088.22 672 1088C676.178 1083.82 683.402 1084.9 689 1085Z" fill="#35CA8B"/>
<path d="M628 1008C628 1010.84 627.597 1013.24 627 1016C626.01 1016 625.02 1016 624 1016C624 1016.66 624 1017.32 624 1018C623.34 1018 622.68 1018 622 1018C622 1018.99 622 1019.98 622 1021C621.01 1020.67 620.02 1020.34 619 1020C619.66 1020 620.32 1020 621 1020C621 1019.01 621 1018.02 621 1017C621.66 1017 622.32 1017 623 1017C623.082 1016.44 623.165 1015.89 623.25 1015.31C624.226 1012.3 625.952 1010.38 628 1008Z" fill="#61D3A4"/>
<path d="M760 1119C762.31 1119.66 764.62 1120.32 767 1121C767 1121.66 767 1122.32 767 1123C770.3 1123 773.6 1123 777 1123C777 1123.33 777 1123.66 777 1124C774.917 1124.08 772.834 1124.14 770.75 1124.19C769.01 1124.24 769.01 1124.24 767.234 1124.29C763.771 1123.98 762.408 1123.46 760 1121C760 1120.34 760 1119.68 760 1119Z" fill="#4CD299"/>
<path d="M611 1022C611.66 1022 612.32 1022 613 1022C612.67 1022.68 612.34 1023.36 612 1024.06C610.827 1027.51 610.858 1030.38 611 1034C609.68 1033.34 608.36 1032.68 607 1032C607.476 1030.52 607.956 1029.04 608.438 1027.56C608.704 1026.74 608.971 1025.92 609.246 1025.07C610 1023 610 1023 611 1022Z" fill="#DFF0EC"/>
<path d="M587 956C587.66 956.33 588.32 956.66 589 957C588.913 959.084 588.804 961.167 588.688 963.25C588.629 964.41 588.571 965.57 588.512 966.766C587.983 970.108 587.262 971.55 585 974C585.667 968 586.333 962 587 956Z" fill="#BBE7DA"/>
<path d="M632 914C632.99 914 633.98 914 635 914C634.795 914.545 634.59 915.091 634.379 915.652C632.413 921.154 631.462 926.176 631 932C630.67 932 630.34 932 630 932C630 928.04 630 924.08 630 920C630.66 920 631.32 920 632 920C632 918.02 632 916.04 632 914Z" fill="#C6E9DE"/>
<path d="M726 1014C726.66 1014 727.32 1014 728 1014C728.37 1021.38 728.37 1021.38 726.5 1024.5C726.005 1024.99 725.51 1025.49 725 1026C724.858 1017.43 724.858 1017.43 726 1014Z" fill="#28C984"/>
<path d="M838 912C838.99 912 839.98 912 841 912C842.32 914.64 843.64 917.28 845 920C844.01 920.495 844.01 920.495 843 921C842.67 920.01 842.34 919.02 842 918C839.985 917.267 839.985 917.267 838 917C837.438 915.062 837.438 915.062 837 913C837.33 912.67 837.66 912.34 838 912Z" fill="#C3E5DB"/>
<path d="M834 904C834.99 904.33 835.98 904.66 837 905C837 905.99 837 906.98 837 908C837.66 908 838.32 908 839 908C840.625 909.312 840.625 909.312 842 911C842 911.99 842 912.98 842 914C842.66 914 843.32 914 844 914C843.67 914.99 843.34 915.98 843 917C842.34 916.34 841.68 915.68 841 915C841 914.01 841 913.02 841 912C840.402 911.979 839.804 911.959 839.188 911.938C837 911 837 911 835.25 907.438C834.837 906.303 834.425 905.169 834 904Z" fill="#68D6A9"/>
<path d="M630 889C630.66 889.33 631.32 889.66 632 890C631.67 891.32 631.34 892.64 631 894C630.34 894 629.68 894 629 894C629 894.66 629 895.32 629 896C628.01 896 627.02 896 626 896C625.67 896.99 625.34 897.98 625 899C624.67 898.34 624.34 897.68 624 897C625.312 894.375 625.312 894.375 627 892C627.66 892 628.32 892 629 892C629.33 891.01 629.66 890.02 630 889Z" fill="#EDF0F4"/>
<path d="M753 1108C753.66 1108 754.32 1108 755 1108C755.99 1110.97 756.98 1113.94 758 1117C756.68 1116.67 755.36 1116.34 754 1116C752.688 1113.06 752.688 1113.06 752 1110C752.33 1109.34 752.66 1108.68 753 1108Z" fill="#DFECEC"/>
<path d="M646 1107C649.63 1107.33 653.26 1107.66 657 1108C657 1109.32 657 1110.64 657 1112C655.68 1112.33 654.36 1112.66 653 1113C653 1112.01 653 1111.02 653 1110C652.402 1109.88 651.804 1109.75 651.188 1109.62C649 1109 649 1109 646 1107Z" fill="#D9EDEA"/>
<path d="M697.375 1083.88C698.62 1083.89 699.865 1083.91 701.148 1083.93C702.56 1083.97 702.56 1083.97 704 1084C704 1084.33 704 1084.66 704 1085C700.04 1085 696.08 1085 692 1085C692 1085.66 692 1086.32 692 1087C689.36 1087 686.72 1087 684 1087C684 1086.67 684 1086.34 684 1086C688.624 1084.19 692.425 1083.78 697.375 1083.88Z" fill="#B1E5D3"/>
<path d="M756 855C757.73 855.285 759.459 855.578 761.188 855.875C762.15 856.037 763.113 856.2 764.105 856.367C766.91 856.98 769.372 857.857 772 859C772 859.33 772 859.66 772 860C769.69 860 767.38 860 765 860C765 859.34 765 858.68 765 858C763.886 858.062 762.773 858.124 761.625 858.188C760.429 858.126 759.233 858.064 758 858C757.34 857.01 756.68 856.02 756 855Z" fill="#CAE6E0"/>
<path d="M599 929C600 931 600 931 599.441 933.164C599.151 933.976 598.861 934.788 598.562 935.625C598.275 936.442 597.988 937.26 597.691 938.102C597.463 938.728 597.235 939.355 597 940C596.34 940 595.68 940 595 940C595.51 935.611 596.522 932.663 599 929Z" fill="#DAEEEB"/>
<path d="M603 915C603.66 915.33 604.32 915.66 605 916C604.34 917.32 603.68 918.64 603 920C602.34 920 601.68 920 601 920C600.876 920.784 600.753 921.568 600.625 922.375C600 925 600 925 598 927C598 925.35 598 923.7 598 922C598.66 922 599.32 922 600 922C600.33 920.35 600.66 918.7 601 917C601.66 917 602.32 917 603 917C603 916.34 603 915.68 603 915Z" fill="#35D18E"/>
<path d="M657 869C654.353 870.461 653.106 871 650 871C650 871.99 650 872.98 650 874C648.35 874.33 646.7 874.66 645 875C645 874.34 645 873.68 645 873C645.66 873 646.32 873 647 873C647 872.01 647 871.02 647 870C653.286 867.572 653.286 867.572 657 869Z" fill="#64D5A8"/>
<path d="M634 1080C634.99 1080 635.98 1080 637 1080C637 1080.99 637 1081.98 637 1083C637.66 1083 638.32 1083 639 1083C639 1083.99 639 1084.98 639 1086C639.66 1086 640.32 1086 641 1086C641 1086.66 641 1087.32 641 1088C640.01 1088 639.02 1088 638 1088C638 1087.34 638 1086.68 638 1086C637.34 1086 636.68 1086 636 1086C635.34 1084.02 634.68 1082.04 634 1080Z" fill="#3BCC8E"/>
<path d="M598 1049C598.66 1049 599.32 1049 600 1049C600 1049.66 600 1050.32 600 1051C600.66 1051 601.32 1051 602 1051C603.429 1053.35 604.087 1054.48 603.625 1057.25C603.419 1057.83 603.213 1058.4 603 1059C602.67 1058.01 602.34 1057.02 602 1056C601.34 1056 600.68 1056 600 1056C599.34 1053.69 598.68 1051.38 598 1049Z" fill="#E8F2F3"/>
<path d="M612 1032C612.66 1032 613.32 1032 614 1032C614 1032.66 614 1033.32 614 1034C615.65 1034 617.3 1034 619 1034C619 1034.66 619 1035.32 619 1036C619.66 1036 620.32 1036 621 1036C621.66 1037.32 622.32 1038.64 623 1040C621.02 1039.34 619.04 1038.68 617 1038C617 1037.01 617 1036.02 617 1035C615.68 1035 614.36 1035 613 1035C612.67 1034.01 612.34 1033.02 612 1032Z" fill="#5DD0A1"/>
<path d="M591 942C591.625 943.812 591.625 943.812 592 946C591.01 947.485 591.01 947.485 590 949C589.606 951.324 589.265 953.658 589 956C588.34 956 587.68 956 587 956C587.66 952.04 588.32 948.08 589 944C589.66 944 590.32 944 591 944C591 943.34 591 942.68 591 942Z" fill="#58D19F"/>
<path d="M758 1117C763.365 1117.85 768.679 1118.92 774 1120C774 1120.33 774 1120.66 774 1121C771.895 1120.91 769.791 1120.8 767.688 1120.69C765.93 1120.6 765.93 1120.6 764.137 1120.51C760.902 1119.98 759.913 1119.58 758 1117Z" fill="#D3EEE7"/>
<path d="M789 1112C790.65 1112 792.3 1112 794 1112C793.01 1112.5 793.01 1112.5 792 1113C792 1113.66 792 1114.32 792 1115C789.688 1116.69 789.688 1116.69 787 1118C786.01 1117.67 785.02 1117.34 784 1117C784.66 1117 785.32 1117 786 1117C786.33 1116.01 786.66 1115.02 787 1114C787.66 1114 788.32 1114 789 1114C789 1113.34 789 1112.68 789 1112Z" fill="#D1EEE4"/>
<path d="M714 1114C714.33 1114 714.66 1114 715 1114C715.369 1121.38 715.369 1121.38 713.5 1124.5C713.005 1124.99 712.51 1125.49 712 1126C712 1123.36 712 1120.72 712 1118C712.66 1118 713.32 1118 714 1118C714 1116.68 714 1115.36 714 1114Z" fill="#41CD92"/>
<path d="M624 1088C626.972 1089.12 629.334 1090.22 632 1092C632 1092.99 632 1093.98 632 1095C628.597 1093.99 627.243 1093.35 625.188 1090.38C624.796 1089.59 624.404 1088.81 624 1088Z" fill="#D5F0E6"/>
<path d="M727 966C727.99 966.33 728.98 966.66 730 967C730.766 968.707 730.766 968.707 731.25 970.812C731.505 971.843 731.505 971.843 731.766 972.895C732.022 975.195 731.69 976.806 731 979C731 978.01 731 977.02 731 976C730.34 976 729.68 976 729 976C728.856 974.907 728.711 973.814 728.562 972.688C728.117 969.069 728.117 969.069 727 966Z" fill="#DAEAE9"/>
<path d="M861 957C861.66 957 862.32 957 863 957C864.158 960.473 864.069 963.361 864 967C861.646 964.449 861.017 963.29 860.812 959.75C860.874 958.842 860.936 957.935 861 957Z" fill="#32D08C"/>
<path d="M825 894C826.465 895.27 827.93 896.539 829.395 897.809C831.107 899.209 831.107 899.209 834 900C833.67 901.32 833.34 902.64 833 904C831.661 902.715 830.329 901.421 829 900.125C827.886 899.046 827.886 899.046 826.75 897.945C825 896 825 896 825 894Z" fill="#7DD5B3"/>
<path d="M607 1069C607.66 1069 608.32 1069 609 1069C610.32 1071.31 611.64 1073.62 613 1076C610 1076 610 1076 608 1075C607.375 1071.94 607.375 1071.94 607 1069Z" fill="#74D8B0"/>
<path d="M630 965C630.33 965.66 630.66 966.32 631 967C631.66 967 632.32 967 633 967C633 970.96 633 974.92 633 979C632.67 979 632.34 979 632 979C632 976.03 632 973.06 632 970C631.34 970 630.68 970 630 970C630 968.35 630 966.7 630 965Z" fill="#D3EDE5"/>
<path d="M844 917C844.99 917.33 845.98 917.66 847 918C847 919.32 847 920.64 847 922C847.66 922 848.32 922 849 922C848.67 923.32 848.34 924.64 848 926C844 920.375 844 920.375 844 917Z" fill="#4ECF99"/>
<path d="M643 893C643.99 893.33 644.98 893.66 646 894C644.02 896.97 644.02 896.97 642 900C641.375 898.188 641.375 898.188 641 896C641.66 895.01 642.32 894.02 643 893Z" fill="#F2F2F1"/>
<path d="M785 864C787.64 864.66 790.28 865.32 793 866C793 866.66 793 867.32 793 868C793.66 868 794.32 868 795 868C794.67 868.66 794.34 869.32 794 870C793.257 869.526 792.515 869.051 791.75 868.562C789.389 867.221 787.634 866.488 785 866C785 865.34 785 864.68 785 864Z" fill="#59D09F"/>
<path d="M821 1088C821.99 1088.33 822.98 1088.66 824 1089C824 1089.66 824 1090.32 824 1091C823.34 1091 822.68 1091 822 1091C822 1091.66 822 1092.32 822 1093C820.02 1093.66 818.04 1094.32 816 1095C816.33 1094.01 816.66 1093.02 817 1092C818.32 1092 819.64 1092 821 1092C821 1090.68 821 1089.36 821 1088Z" fill="#C8EDE1"/>
<path d="M851 1047C851.66 1047.33 852.32 1047.66 853 1048C852.34 1049.98 851.68 1051.96 851 1054C850.01 1054 849.02 1054 848 1054C847.812 1051.62 847.812 1051.62 848 1049C848.99 1048.34 849.98 1047.68 851 1047Z" fill="#C7E8DE"/>
<path d="M859 1022C860.456 1026.52 859.27 1029.52 858 1034C857.67 1034 857.34 1034 857 1034C857 1030.7 857 1027.4 857 1024C857.66 1024 858.32 1024 859 1024C859 1023.34 859 1022.68 859 1022Z" fill="#D4EDE6"/>
<path d="M640 905C640.99 905.33 641.98 905.66 643 906C640.69 908.31 638.38 910.62 636 913C635.67 912.01 635.34 911.02 635 910C635.66 910 636.32 910 637 910C637.33 909.01 637.66 908.02 638 907C638.66 907 639.32 907 640 907C640 906.34 640 905.68 640 905Z" fill="#DAECE9"/>
<path d="M777 862C779.667 862.667 782.333 863.333 785 864C785 864.66 785 865.32 785 866C786.32 866.33 787.64 866.66 789 867C787.35 867 785.7 867 784 867C784 866.34 784 865.68 784 865C781.69 864.67 779.38 864.34 777 864C777 863.34 777 862.68 777 862Z" fill="#BEE5D6"/>
<path d="M671 861.999C669.568 862.699 668.129 863.384 666.688 864.062C665.487 864.636 665.487 864.636 664.262 865.222C662 865.999 662 865.999 659 864.999C660 862.999 660 862.999 663.312 861.812C666.757 861.053 667.83 861.013 671 861.999Z" fill="#60D1A2"/>
<path d="M671 1123C672.98 1123 674.96 1123 677 1123C677 1123.66 677 1124.32 677 1125C677.66 1125.33 678.32 1125.66 679 1126C676.69 1126 674.38 1126 672 1126C671.67 1125.01 671.34 1124.02 671 1123Z" fill="#31CE8B"/>
<path d="M602 1059C605 1060 605 1060 606.25 1062.31C607.028 1065.1 606.987 1066.33 606 1069C602 1062.38 602 1062.38 602 1059Z" fill="#B3E7D4"/>
<path d="M618 1038C621.653 1039.25 622.781 1039.67 625 1043C620.25 1042.12 620.25 1042.12 618 1041C618 1040.01 618 1039.02 618 1038Z" fill="#CAE6DF"/>
<path d="M629 1003C629.33 1003.66 629.66 1004.32 630 1005C629.223 1006.73 629.223 1006.73 628.062 1008.62C627.382 1009.74 626.701 1010.85 626 1012C625.67 1012 625.34 1012 625 1012C625 1010.35 625 1008.7 625 1007C625.66 1007 626.32 1007 627 1007C627.66 1005.68 628.32 1004.36 629 1003Z" fill="#BFE3D9"/>
<path d="M679 918C680.65 918 682.3 918 684 918C684 918.66 684 919.32 684 920C685.32 920 686.64 920 688 920C688.33 920.99 688.66 921.98 689 923C688.34 923 687.68 923 687 923C687 922.34 687 921.68 687 921C685.02 921 683.04 921 681 921C681 920.34 681 919.68 681 919C680.34 918.67 679.68 918.34 679 918Z" fill="#52CF9C"/>
<path d="M833 904C836 906 836 906 836.688 908.625C836.791 909.409 836.894 910.193 837 911C836.01 911 835.02 911 834 911C834 910.01 834 909.02 834 908C833.01 908.495 833.01 908.495 832 909C832.33 907.35 832.66 905.7 833 904Z" fill="#DAEDE8"/>
<path d="M664 1118C667.775 1119.09 670.47 1119.91 673 1123C667.462 1122.51 667.462 1122.51 665.125 1119.94C664.754 1119.3 664.382 1118.66 664 1118Z" fill="#5DD1A0"/>
<path d="M729 1075C729.309 1075.64 729.619 1076.28 729.938 1076.94C730.835 1078.94 730.835 1078.94 732 1080C732.041 1082 732.043 1084 732 1086C729.397 1083.29 729.005 1082.11 728.812 1078.25C728.874 1077.18 728.936 1076.11 729 1075Z" fill="#C6E6DD"/>
<path d="M618 1021C618 1021.99 618 1022.98 618 1024C615 1026.19 615 1026.19 612 1028C612 1027.01 612 1026.02 612 1025C612.66 1025 613.32 1025 614 1025C614 1024.34 614 1023.68 614 1023C615.32 1022.34 616.64 1021.68 618 1021Z" fill="#49D097"/>
<path d="M696 928C697.32 928.33 698.64 928.66 700 929C700.33 930.32 700.66 931.64 701 933C698.525 932.01 698.525 932.01 696 931C696 930.01 696 929.02 696 928Z" fill="#3ECB8F"/>
<path d="M767.938 854.437C768.288 854.953 768.639 855.468 769 856C762.375 856.25 762.375 856.25 759 854C765.523 852.646 765.523 852.646 767.938 854.437Z" fill="#2BCA86"/>
</g>
<defs>
<clipPath id="clip0_2619_19240">
<rect width="2000" height="2000" fill="white"/>
</clipPath>
</defs>
</svg>
