<svg width="1047" height="288" viewBox="0 0 1047 288" fill="none" xmlns="http://www.w3.org/2000/svg">
<path d="M1043.54 253.894C1030.23 264.818 1015.37 273.145 998.966 278.874C982.559 284.603 965.598 287.36 948.083 287.145C934.65 286.98 921.7 285.08 909.234 281.446C896.897 277.942 885.303 273.03 874.452 266.708C863.734 260.259 853.953 252.597 845.11 243.722C836.267 234.846 828.687 225.084 822.369 214.434C816.185 203.658 811.393 192.189 807.992 180.028C804.725 167.741 803.176 155.023 803.344 141.874C803.513 128.726 805.388 116.05 808.969 103.846C812.682 91.6442 817.767 80.2969 824.224 69.8045C830.814 59.1847 838.643 49.5471 847.711 40.8917C856.778 32.2362 866.751 24.8812 877.63 18.8264C888.642 12.6444 900.359 7.9537 912.781 4.75427C925.337 1.42755 938.331 -0.153307 951.764 0.011696C969.28 0.226847 986.165 3.3995 1002.42 9.52966C1018.68 15.5309 1033.32 24.2197 1046.34 35.5961L1015.7 83.5662C1007.51 74.6988 997.785 67.8753 986.519 63.0956C975.254 58.1871 963.432 55.6568 951.053 55.5047C938.542 55.351 926.791 57.5273 915.801 62.0336C904.81 66.5399 895.181 72.7389 886.914 80.6306C878.648 88.3934 872.075 97.6597 867.195 108.429C862.317 119.07 859.8 130.449 859.645 142.566C859.489 154.683 861.714 166.12 866.317 176.877C870.923 187.506 877.257 196.866 885.32 204.958C893.382 213.05 902.849 219.484 913.721 224.259C924.592 229.034 936.283 231.498 948.794 231.652C961.174 231.804 973.056 229.629 984.442 225.128C995.829 220.497 1005.73 213.85 1014.14 205.187L1043.54 253.894Z" fill="#3ce56e"/>
<path d="M0.00722136 87.1065C0.154314 75.6341 2.53115 64.8981 7.13773 54.8987C11.7443 44.8992 17.9147 36.2081 25.649 28.8255C33.5166 21.3157 42.6146 15.4325 52.9431 11.1759C63.2716 6.91938 74.2963 4.86309 86.0173 5.00707L216.001 6.60371L215.29 62.0967L85.3058 60.5001C81.3549 60.4516 77.6583 61.1152 74.216 62.4911C70.7737 63.867 67.7191 65.8278 65.0521 68.3735C62.5185 70.7919 60.5059 73.668 59.0143 77.0017C57.5226 80.3354 56.752 83.9358 56.7024 87.8029C56.6529 91.67 57.3301 95.3527 58.7341 98.8509C60.1398 102.22 62.0772 105.209 64.5464 107.818C67.1489 110.3 70.1532 112.27 73.5591 113.73C76.965 115.19 80.6434 115.945 84.5943 115.993L141.289 116.69C153.01 116.833 163.979 119.16 174.195 123.669C184.545 128.05 193.49 134.091 201.031 141.79C208.705 149.362 214.65 158.266 218.865 168.503C223.214 178.612 225.315 189.403 225.168 200.876C225.02 212.348 222.644 223.084 218.037 233.084C213.562 243.085 207.391 251.84 199.523 259.35C191.789 266.733 182.692 272.551 172.232 276.806C161.903 281.063 150.878 283.119 139.157 282.975L13.3218 281.43L14.0333 225.937L139.869 227.482C143.82 227.531 147.516 226.867 150.959 225.491C154.401 224.115 157.389 222.218 159.923 219.8C162.59 217.254 164.669 214.314 166.161 210.981C167.652 207.647 168.423 204.046 168.472 200.179C168.522 196.312 167.844 192.694 166.438 189.325C165.032 185.955 163.028 183.03 160.426 180.549C157.957 177.94 155.019 175.905 151.613 174.445C148.207 172.985 144.529 172.231 140.578 172.183L83.8828 171.486C72.1618 171.342 61.1933 169.016 50.9772 164.507C40.7611 159.998 31.8159 153.958 24.1417 146.386C16.6008 138.687 10.656 129.782 6.30724 119.673C1.96014 109.434 -0.139871 98.5789 0.00722136 87.1065Z" fill="#3ce56e"/>
<path d="M558.164 87.1065C558.312 75.6341 560.688 64.8981 565.295 54.8987C569.902 44.8992 576.072 36.2081 583.806 28.8256C591.674 21.3157 600.772 15.4325 611.1 11.1759C621.429 6.91938 632.454 4.86309 644.175 5.00707L774.159 6.60371L773.447 62.0967L643.463 60.5001C639.512 60.4516 635.816 61.1152 632.373 62.4911C628.931 63.867 625.876 65.8278 623.209 68.3735C620.676 70.7919 618.663 73.668 617.171 77.0017C615.68 80.3354 614.909 83.9358 614.86 87.8029C614.81 91.67 615.487 95.3527 616.891 98.8509C618.297 102.22 620.234 105.209 622.704 107.818C625.306 110.3 628.31 112.27 631.716 113.73C635.122 115.19 638.801 115.945 642.752 115.993L699.447 116.69C711.168 116.833 722.136 119.16 732.352 123.669C742.702 128.05 751.647 134.091 759.188 141.79C766.862 149.362 772.807 158.266 777.022 168.503C781.371 178.612 783.472 189.403 783.325 200.876C783.178 212.348 780.801 223.084 776.194 233.084C771.719 243.085 765.548 251.84 757.681 259.35C749.946 266.733 740.849 272.551 730.389 276.806C720.06 281.063 709.036 283.119 697.315 282.975L571.479 281.43L572.191 225.937L698.026 227.482C701.977 227.531 705.674 226.867 709.116 225.491C712.558 224.115 715.546 222.218 718.08 219.8C720.747 217.254 722.826 214.314 724.318 210.981C725.809 207.647 726.58 204.046 726.63 200.179C726.679 196.312 726.001 192.694 724.595 189.325C723.19 185.955 721.186 183.03 718.583 180.549C716.114 177.94 713.176 175.905 709.77 174.445C706.364 172.985 702.686 172.231 698.735 172.183L642.04 171.486C630.319 171.342 619.351 169.016 609.134 164.507C598.918 159.998 589.973 153.958 582.299 146.386C574.758 138.687 568.813 129.782 564.464 119.673C560.117 109.434 558.017 98.5789 558.164 87.1065Z" fill="#3ce56e"/>
<path d="M538.145 146.086C537.977 159.234 536.036 171.909 532.323 184.112C528.744 196.187 523.725 207.535 517.266 218.156C510.809 228.648 503.047 238.222 493.979 246.878C484.912 255.533 474.938 262.953 464.058 269.136C453.179 275.191 441.463 279.817 428.909 283.015C416.353 286.342 403.359 287.923 389.926 287.758C376.493 287.593 363.543 285.693 351.076 282.059C338.74 278.556 327.146 273.643 316.294 267.321C305.576 260.872 295.796 253.21 286.953 244.335C278.11 235.459 270.53 225.697 264.212 215.048C258.028 204.271 253.235 192.802 249.835 180.642C246.568 168.354 245.019 155.636 245.187 142.488C245.356 129.339 247.231 116.663 250.812 104.46C254.525 92.2575 259.609 80.9102 266.066 70.4178C272.655 59.9269 280.483 50.3538 289.551 41.6983C298.619 33.0429 308.592 25.6878 319.47 19.6331C330.48 13.58 342.196 8.9537 354.619 5.75427C367.175 2.42755 380.169 0.846693 393.602 1.0117C407.035 1.1767 419.985 3.07624 432.451 6.71032C444.92 10.2155 456.514 15.1281 467.233 21.4481C477.953 27.7681 487.734 35.3659 496.577 44.2413C505.42 53.1168 512.935 62.8784 519.121 73.5261C525.307 84.1739 530.033 95.6417 533.3 107.93C536.699 120.219 538.314 132.938 538.145 146.086ZM481.845 145.395C482.001 133.278 479.776 121.841 475.172 111.083C470.57 100.197 464.237 90.7724 456.173 82.809C448.242 74.7183 438.775 68.2847 427.772 63.5083C416.9 58.7335 405.275 56.2701 392.896 56.118C380.384 55.9643 368.634 58.1406 357.643 62.6469C346.653 67.1531 337.024 73.3521 328.757 81.2439C320.491 89.0067 313.918 98.2729 309.038 109.043C304.159 119.683 301.643 131.062 301.487 143.179C301.332 155.296 303.556 166.733 308.16 177.49C312.766 188.119 319.1 197.479 327.162 205.571C335.225 213.664 344.692 220.097 355.563 224.872C366.435 229.647 378.126 232.111 390.637 232.265C403.017 232.417 414.701 230.24 425.692 225.734C436.814 221.229 446.443 215.03 454.579 207.137C462.846 199.245 469.418 190.043 474.295 179.531C479.173 168.89 481.69 157.512 481.845 145.395Z" fill="#3ce56e"/>
</svg>
